<svg xmlns="http://www.w3.org/2000/svg" width="32" height="32" viewBox="0 0 32 32">
  <g id="Group_5217" data-name="Group 5217" transform="translate(-41 -131)">
    <path id="Union_109" data-name="Union 109" d="M19.667,32a2.337,2.337,0,0,1-2.334-2.334V25a2.336,2.336,0,0,1,2.334-2.333h10A2.336,2.336,0,0,1,32,25v4.667A2.337,2.337,0,0,1,29.666,32ZM2.333,32A2.336,2.336,0,0,1,0,29.666V13a2.335,2.335,0,0,1,2.333-2.333h10A2.335,2.335,0,0,1,14.666,13V29.666A2.336,2.336,0,0,1,12.333,32ZM19.667,20a2.337,2.337,0,0,1-2.334-2.334V13a2.336,2.336,0,0,1,2.334-2.333h10A2.336,2.336,0,0,1,32,13v4.667A2.337,2.337,0,0,1,29.666,20ZM2.333,8A2.336,2.336,0,0,1,0,5.666V2.333A2.335,2.335,0,0,1,2.333,0H29.666A2.336,2.336,0,0,1,32,2.333V5.666A2.337,2.337,0,0,1,29.666,8Z" transform="translate(41 131)" fill="#349cc8"/>
  </g>
</svg>
