<svg id="Group_428" data-name="Group 428" xmlns="http://www.w3.org/2000/svg" width="21.931" height="19" viewBox="0 0 21.931 19">
  <path id="Subtraction_10" data-name="Subtraction 10" d="M20.922,19H1.694A1.7,1.7,0,0,1,0,17.306V5.357A1.716,1.716,0,0,1,1.694,3.663H8.378V.87A.871.871,0,0,1,9.248,0h3.434a.871.871,0,0,1,.869.87V3.663h6.73a1.671,1.671,0,0,1,1.2.523,1.575,1.575,0,0,1,.445,1.171V17.306c0,.053,0,.1-.006.147V18A1,1,0,0,1,20.922,19ZM6.1,12.285l-.305.382.839,2.06-1.144.992.016,0h0a12.489,12.489,0,0,0,2.483-.222c.761-.165,1.163-.4,1.163-.692,0-.964-1.128-2.36-2.747-2.823A2.633,2.633,0,0,0,7.555,9.843a2.061,2.061,0,0,0-4.121,0A2.747,2.747,0,0,0,4.578,11.98,3.426,3.426,0,0,0,1.831,14.8c0,.629,1.9.915,3.662.915L4.5,14.727l.84-2.06-.305-.382a1.124,1.124,0,0,0,.534.076A1.3,1.3,0,0,0,6.1,12.285Zm13.307,2.354a.387.387,0,0,0-.274.1.458.458,0,0,0,0,.55.66.66,0,0,0,.274.091.652.652,0,0,0,.269-.088l.005,0a.458.458,0,0,0,0-.55A.39.39,0,0,0,19.412,14.639Zm-2.2.011a.4.4,0,0,0-.366.366.391.391,0,0,0,.366.366h.733a.391.391,0,0,0,.366-.366.4.4,0,0,0-.366-.366Zm-1.832,0a.4.4,0,0,0-.366.366.391.391,0,0,0,.366.366h.366a.366.366,0,1,0,0-.733Zm-2.2,0a.366.366,0,1,0,0,.733h.732a.366.366,0,1,0,0-.733Zm-1.832,0a.366.366,0,1,0,0,.733h.366a.391.391,0,0,0,.366-.366.4.4,0,0,0-.366-.366Zm0-1.831a.366.366,0,0,0,0,.733h8.058a.4.4,0,0,0,.366-.366.391.391,0,0,0-.366-.366Zm0-2.2a.366.366,0,0,0,0,.733h8.058a.4.4,0,0,0,.366-.366.391.391,0,0,0-.366-.366Zm0-2.2a.391.391,0,0,0-.366.366.363.363,0,0,0,.366.366h3.662a.366.366,0,1,0,0-.733ZM1.329,4.469A.957.957,0,0,0,.734,5.3,1,1,0,0,1,1.329,4.469ZM9.293.733A.146.146,0,0,0,9.157.87V4.385h3.662V.87c0-.09-.046-.138-.091-.138Z" transform="translate(0)" fill="#4a4cf9"/>
  <path id="Path_333" data-name="Path 333" d="M22.8,6.41a1.979,1.979,0,0,0,2-2,2,2,0,0,0-4.01,0,1.979,1.979,0,0,0,2,2Zm0-3.007a1,1,0,1,1-1,1,.99.99,0,0,1,1-1Zm0,0" transform="translate(-11.818 -0.896)" fill="#4a4cf9"/>
</svg>
