<svg xmlns="http://www.w3.org/2000/svg" width="25.923" height="24.981" viewBox="0 0 25.923 24.981">
  <path id="Forma_1-2" data-name="Forma 1-2" d="M195.323,165.683l11.622-10.709,11.622,10.709a.78.78,0,0,0,.532.211.789.789,0,0,0,.611-.3.9.9,0,0,0-.08-1.217l-12.155-11.2a.774.774,0,0,0-1.062,0l-4.331,3.99v-1.616a1.624,1.624,0,1,0-3.237,0v4.6l-4.583,4.223a.9.9,0,0,0-.08,1.217.78.78,0,0,0,1.139.084Zm8.381,3.657h6.482v8.614h4.861a1.676,1.676,0,0,0,1.62-1.723v-8.443a1.757,1.757,0,0,0-.6-1.333l-8.1-7.061a1.54,1.54,0,0,0-2.053,0l-8.1,7.061a1.757,1.757,0,0,0-.593,1.333v8.443a1.675,1.675,0,0,0,1.62,1.723h4.866v-8.614Z" transform="translate(-193.986 -152.972)" fill="#4a4cf9" fill-rule="evenodd"/>
</svg>
