<svg xmlns="http://www.w3.org/2000/svg" width="30" height="17.59" viewBox="0 0 30 17.59"><path d="M-5940.758,2358.134l-3.433-3.432,2.29-2.284,3.427,3.432a1.617,1.617,0,0,1,.474,1.143,1.613,1.613,0,0,1-.474,1.142,1.652,1.652,0,0,1-1.142.457A1.651,1.651,0,0,1-5940.758,2358.134Zm-1.908-3.429,2.287,2.286.762-.762-2.286-2.286Zm-23.718,2.459a1.62,1.62,0,0,1-1.616-1.616v-1.616h18.857a6.962,6.962,0,0,0,3.335-.847l.856.857-.382.382a.518.518,0,0,0-.037.7v.523a1.616,1.616,0,0,1-1.617,1.616Zm21.493-4.681a7.8,7.8,0,0,0,.809-.722l.657.657-.765.766Zm-10.178-5.555a5.93,5.93,0,0,1,5.926-5.927,5.926,5.926,0,0,1,5.927,5.927,5.927,5.927,0,0,1-5.927,5.927A5.927,5.927,0,0,1-5955.069,2346.927Zm1.078,0a4.849,4.849,0,0,0,4.849,4.849,4.849,4.849,0,0,0,4.85-4.849,4.849,4.849,0,0,0-4.85-4.849A4.855,4.855,0,0,0-5953.991,2346.927Zm-14.009,5.927v-10.237a1.621,1.621,0,0,1,1.616-1.616h13.524a7,7,0,0,0-3.286,5.927,7,7,0,0,0,3.286,5.927Zm15.087-5.927a3.771,3.771,0,0,1,3.771-3.772,3.772,3.772,0,0,1,3.772,3.772,3.773,3.773,0,0,1-3.772,3.772A3.775,3.775,0,0,1-5952.913,2346.927Zm1.077,0h1.078a1.617,1.617,0,0,1,1.616-1.616v-1.078A2.7,2.7,0,0,0-5951.836,2346.927Z" transform="translate(5968 -2341)" fill="#349cc8"/></svg>