<svg xmlns="http://www.w3.org/2000/svg" width="32" height="32" viewBox="0 0 32 32">
  <path id="settings" d="M30.245,12.525l-2.507-.319a12.6,12.6,0,0,0-.759-1.832l1.548-1.993a1.982,1.982,0,0,0-.163-2.639l-2.1-2.1a1.988,1.988,0,0,0-2.647-.169L21.628,5.021a12.556,12.556,0,0,0-1.833-.759l-.319-2.5A2,2,0,0,0,17.494,0H14.507a2,2,0,0,0-1.981,1.756l-.319,2.507a12.41,12.41,0,0,0-1.833.759L8.382,3.473a1.984,1.984,0,0,0-2.639.163l-2.1,2.1a1.988,1.988,0,0,0-.169,2.648l1.548,1.992a12.453,12.453,0,0,0-.759,1.832l-2.5.319A2,2,0,0,0,0,14.507v2.987a2,2,0,0,0,1.756,1.981l2.507.319a12.6,12.6,0,0,0,.759,1.832L3.473,23.619a1.982,1.982,0,0,0,.163,2.639l2.1,2.1a1.989,1.989,0,0,0,2.647.168l1.992-1.548a12.31,12.31,0,0,0,1.832.759l.319,2.5A2,2,0,0,0,14.507,32h2.987a2,2,0,0,0,1.981-1.756l.319-2.507a12.6,12.6,0,0,0,1.832-.759l1.993,1.548a1.982,1.982,0,0,0,2.639-.163l2.1-2.1a1.986,1.986,0,0,0,.169-2.647L26.98,21.625a12.309,12.309,0,0,0,.759-1.832l2.5-.319A2,2,0,0,0,32,17.493V14.507a2,2,0,0,0-1.755-1.981ZM16,22.667A6.667,6.667,0,1,1,22.668,16,6.674,6.674,0,0,1,16,22.667Z" fill="#349cc8"/>
</svg>
