<svg xmlns="http://www.w3.org/2000/svg" width="23.621" height="25.23" viewBox="0 0 23.621 25.23">
  <path id="Union_11" data-name="Union 11" d="M17.125,24.98a.392.392,0,0,1-.388-.43l.374-3.746-4.2-5.342a.387.387,0,0,1-.071-.336l.39-1.561a.394.394,0,0,1,.379-.3h1.22a.393.393,0,0,1,.233.078l2.792,2.082.878-1.485V4.293a.392.392,0,0,1,.392-.39h1.153a.392.392,0,0,1,.378.292l1.922,7.416a.409.409,0,0,1,.012.1l.047,8.941.726,3.869a.39.39,0,0,1-.384.463Zm.432-.781H22.51l-.645-3.44a.357.357,0,0,1-.008-.07l-.048-8.929L19.976,4.684h-.46v9.367a.391.391,0,0,1-.054.2L18.309,16.2a.392.392,0,0,1-.57.113L14.7,14.051h-.786l-.27,1.08L17.7,20.3H20.3v.781H17.869ZM7.026,24.98a.783.783,0,0,1-.781-.781V17.954h.781V24.2H16v.781Zm4.293-3.123a1.561,1.561,0,1,1,1.561,1.561A1.564,1.564,0,0,1,11.319,21.857Zm.781,0a.781.781,0,1,0,.78-.78A.782.782,0,0,0,12.1,21.857ZM.78,17.173a.78.78,0,0,1-.78-.78V6.244a.78.78,0,0,1,.78-.78H16a.39.39,0,0,1,.39.39V12.88h-.78V6.244H.78V16.393H12.49v.78Zm2.733-1.56a.391.391,0,0,1-.39-.392.782.782,0,0,0-.781-.78h-.39a.39.39,0,0,1-.39-.39V8.587a.389.389,0,0,1,.39-.39h.39a.783.783,0,0,0,.781-.781.39.39,0,0,1,.39-.39H8.977v.78H3.855A1.565,1.565,0,0,1,2.341,8.977v4.684a1.564,1.564,0,0,1,1.513,1.17H8.977v.781Zm3.9-4.294a3.513,3.513,0,1,1,6.771,1.318l-.724-.292a2.732,2.732,0,1,0-2.534,1.707,2.744,2.744,0,0,0,1.366-.365l.392.674a3.513,3.513,0,0,1-5.27-3.042ZM5.464,12.1V10.539h.78V12.1ZM3.9,12.1V10.539h.781V12.1ZM6.244,4.684V.78A.782.782,0,0,1,7.026,0H18.734a.782.782,0,0,1,.781.78V3.123h-.781V.78H7.026v3.9Zm4.684-2.343v-.78h3.9v.78Z" transform="translate(0.125 0.125)" fill="#4a4cf9" stroke="#4a4cf9" stroke-width="0.25"/>
</svg>
