<svg xmlns="http://www.w3.org/2000/svg" width="23.45" height="23" viewBox="0 0 23.45 23">
  <path id="Union_7" data-name="Union 7" d="M3.818,22.8a2.955,2.955,0,0,1-.825-.239,7.925,7.925,0,0,1,2.558-.434v-.658H0V12.178H14.537v9.289H8.926v.639a14.106,14.106,0,0,1,3.161.378l.014.106a2.6,2.6,0,0,1-.493.156c-.743.083-1.486.185-2.231.212C8.685,22.982,7.992,23,7.3,23A27.666,27.666,0,0,1,3.818,22.8Zm-2.7-2.131h12.3V12.9H1.115Zm11.8,2.16a2.181,2.181,0,0,0-.225-.644,2.4,2.4,0,0,0-.588-.373h3.133V11.768H8.717l-.045-.113c.394-.253.771-.537,1.185-.752a6.223,6.223,0,0,1,2.847-.625c1.545-.018,3.09-.023,4.634,0a6.173,6.173,0,0,1,6.045,5.177,3.85,3.85,0,0,1,.063.637c0,1.777,0,3.555,0,5.36a18.647,18.647,0,0,1-7.7,1.533A27.791,27.791,0,0,1,12.918,22.834Zm-5.4-2.878V15.129h.665v4.826Zm-4.2,0v-4.42h1v4.42Zm1.556,0V16.637h.675v3.316Zm1.079,0V14.41h1v5.543Zm2.635,0V16.639h.707v3.311Zm1.263-.006V15.526h.995v4.419ZM15.061,9.768a4.884,4.884,0,1,1,.021,0Z" fill="#4a4cf9"/>
</svg>
