<svg xmlns="http://www.w3.org/2000/svg" width="25.001" height="25" viewBox="0 0 25.001 25">
  <path id="Union_12" data-name="Union 12" d="M0,25v-.878H1.754V18.86H.439A.44.44,0,0,1,0,18.421V13.6A2.194,2.194,0,0,1,2.193,11.4H5.7a.535.535,0,0,1,.14.021l2.473.825,2.769-1.187,1.244-2.488a.432.432,0,0,1,.112-.139L15.07,6.242a.437.437,0,0,1,.281-.1h6.14V.438a.439.439,0,0,1,.579-.415L24.7.9a.439.439,0,0,1,0,.833l-2.332.778v1h1.315a.438.438,0,0,1,.439.437V6.578a2.195,2.195,0,0,1-2.193,2.193H19.736v1.754H21.49a2.2,2.2,0,0,1,2.193,2.193v3.51h.878V17.1h-6.14V19.3a.438.438,0,0,1-.439.439H13.158v2.193a.439.439,0,0,1-.439.439H6.579v2.193A.439.439,0,0,1,6.14,25Zm4.825-.878H5.7V21.929a.44.44,0,0,1,.439-.439h.878V18.86H4.825ZM2.632,14.035V24.122H3.947v-5.7a.44.44,0,0,1,.439-.439H7.457a.438.438,0,0,1,.437.439V21.49H9.211V17.982a1.317,1.317,0,0,0-1.317-1.314H5.7a.438.438,0,0,1-.436-.439V14.035a.436.436,0,0,1,.5-.435l2.934.42,2.942-1.471-.133-.2-.265-.4L8.506,13.123a.449.449,0,0,1-.313.012L5.63,12.281H4.386V15.35H3.508V12.281H2.193A1.315,1.315,0,0,0,.878,13.6v4.385h.875V14.035ZM6.14,15.789H7.894a2.194,2.194,0,0,1,2.193,2.193V21.49H12.28V19.3a.438.438,0,0,1,.439-.437h2.632V9.649l-.992.745-1.713,2.568s-.01.006-.015.01a.408.408,0,0,1-.154.137L8.969,14.866a.453.453,0,0,1-.259.04l-2.57-.366Zm9.845-7.41a.439.439,0,0,1,.244.392V18.86h1.315v-5.7a.439.439,0,0,1,.439-.439h3.068a.438.438,0,0,1,.439.439v3.071h1.317v-3.51A1.319,1.319,0,0,0,21.49,11.4H19.3a.44.44,0,0,1-.439-.439V8.333A.438.438,0,0,1,19.3,7.9h2.632a1.317,1.317,0,0,0,1.315-1.317V4.385h-.876V6.578a.44.44,0,0,1-.439.439H18.717L17.95,8.934a.438.438,0,0,1-.814,0L16.37,7.017h-.861L13.07,9.049l-1.161,2.322.37.556,1.39-2.084a.38.38,0,0,1,.1-.107L15.526,8.42a.443.443,0,0,1,.263-.087A.43.43,0,0,1,15.985,8.379Zm2.437,7.849h2.193V13.6H18.422Zm-.878-8.637.229-.574h-.458Zm4.825-6.007.806-.267-.806-.27ZM.878,8.333a2.631,2.631,0,1,1,2.629,2.631A2.633,2.633,0,0,1,.878,8.333Zm.875,0a1.759,1.759,0,0,0,1.754,1.756c.051,0,.1-.013.15-.015a1.75,1.75,0,0,1-.587-1.3h.876a.879.879,0,0,0,.728.863,1.752,1.752,0,1,0-2.921-1.3ZM14.472,3.07A2.632,2.632,0,1,1,17.1,5.7,2.636,2.636,0,0,1,14.472,3.07Zm3.071.439a1.747,1.747,0,0,1-.587,1.3c.049,0,.1.015.148.015a1.771,1.771,0,1,0-1.167-.454.876.876,0,0,0,.728-.861ZM10.525,3.07V2.192H11.4V3.07Zm-1.754,0V2.192H9.65V3.07Zm-1.754,0V2.192h.876V3.07Z" fill="#4a4cf9"/>
</svg>
