<svg xmlns="http://www.w3.org/2000/svg" width="87.692" height="70" viewBox="0 0 87.692 70"><path d="M87.451,64.244A30.381,30.381,0,0,0,53.528,53.122a1.285,1.285,0,1,0,.787,2.446,27.677,27.677,0,0,1,26.263,5.059,20.529,20.529,0,0,0-26,15.881,2.719,2.719,0,0,0,.755,2.423l2.712,2.712a1.083,1.083,0,0,1-.793,1.913H37.557a2.888,2.888,0,0,1-2.884-2.885V60.979a1.1,1.1,0,0,1,1.913-.792l2.473,2.473a2.714,2.714,0,0,0,1.949.8,3.117,3.117,0,0,0,2.2-1.092,27.789,27.789,0,0,1,6.724-4.958,1.284,1.284,0,1,0-1.195-2.274c-1.409.741-7.818,5.747-7.857,5.707L38.4,58.369a3.69,3.69,0,0,0-6.3,2.609V80.671a5.46,5.46,0,0,0,5.454,5.454H57.249a3.725,3.725,0,0,0,2.609-6.3c-.075-.139-2.793-2.66-2.758-2.845A17.963,17.963,0,0,1,85.63,66.017a1.292,1.292,0,0,0,1.821-1.773Zm-29.9,30.844a5.361,5.361,0,0,0-8.354.977l-2.5,4.055a2.77,2.77,0,0,1-3.424,1.123c-.905-.374-1.809-.784-2.686-1.219a1.285,1.285,0,1,0-1.142,2.3c.93.462,1.888.9,2.848,1.293a5.33,5.33,0,0,0,6.59-2.15l1.1-1.791,13.677,13.677A18.488,18.488,0,0,1,46.3,118.637c-9.417-2.1-19.119-7.769-27.319-15.968S5.108,84.767,3.01,75.349A18.488,18.488,0,0,1,8.292,57.986L21.969,71.664l-1.789,1.1a5.337,5.337,0,0,0-2.143,6.607A44.495,44.495,0,0,0,35.153,99.9a1.285,1.285,0,0,0,1.387-2.162,41.934,41.934,0,0,1-16.13-19.341,2.778,2.778,0,0,1,1.118-3.439l4.054-2.5a5.361,5.361,0,0,0,.977-8.354l-9.92-9.92a5.343,5.343,0,0,0-6.6-.773,21.156,21.156,0,0,0-2.472,1.786c-.026.02-.051.041-.076.063A21.066,21.066,0,0,0,.5,75.907c2.2,9.888,8.119,20.038,16.66,28.578s18.689,14.457,28.577,16.659a20.939,20.939,0,0,0,4.557.5A21.16,21.16,0,0,0,68.24,111.612a5.343,5.343,0,0,0-.772-6.6ZM11.383,55.594a2.782,2.782,0,0,1,3.439.4l9.92,9.92a2.792,2.792,0,0,1-.509,4.351l-.017.01L10.275,56.336C10.634,56.077,11,55.829,11.383,55.594Zm54.673,54.665,0,.006c-.235.381-.483.749-.741,1.108L51.369,97.431l.01-.017a2.792,2.792,0,0,1,4.351-.509l9.919,9.919a2.782,2.782,0,0,1,.406,3.435Z" transform="translate(0 -51.647)" fill="#27a971" opacity="0.5"/></svg>