<svg xmlns="http://www.w3.org/2000/svg" width="80.586" height="70" viewBox="0 0 80.586 70"><g transform="translate(0 6.831)" opacity="0.5"><path d="M15.845,14.6l-3.108-3.2a1.083,1.083,0,0,1,0-1.5l5.484-5.64L15.845,1.819A1.084,1.084,0,0,1,15.622.659,1.034,1.034,0,0,1,16.578,0H25.9a1.05,1.05,0,0,1,1.036,1.066v9.587a1.067,1.067,0,0,1-.638.985,1.01,1.01,0,0,1-1.129-.232L22.8,8.965,17.311,14.6a1.016,1.016,0,0,1-1.466,0ZM20.419,3.51a1.083,1.083,0,0,1,0,1.5l-5.484,5.638,1.644,1.69L22.062,6.7a1.015,1.015,0,0,1,1.466,0l1.34,1.378V2.132H19.08ZM1.036,14.915A1.051,1.051,0,0,1,0,13.85V4.261a1.066,1.066,0,0,1,.64-.983,1.016,1.016,0,0,1,1.129.232L4.144,5.951,9.628.313a1.015,1.015,0,0,1,1.466,0L14.2,3.51a1.083,1.083,0,0,1,0,1.5L8.717,10.653,11.094,13.1a1.088,1.088,0,0,1,.225,1.161,1.038,1.038,0,0,1-.958.658Zm1.036-2.131H7.861l-1.34-1.378a1.083,1.083,0,0,1,0-1.5L12,4.261,10.361,2.573,4.877,8.211a1.015,1.015,0,0,1-1.466,0L2.073,6.833Z" transform="translate(26.147 21.832)" fill="#349cc8" stroke="#fff" stroke-width="0.3"/><path d="M42.9,67.692a4,4,0,0,0-6.229.729l-1.864,3.024a2.065,2.065,0,0,1-2.553.837A31.292,31.292,0,0,1,15.217,55.245a2.071,2.071,0,0,1,.833-2.564l3.022-1.863a4,4,0,0,0,.729-6.229l-7.4-7.4a3.983,3.983,0,0,0-4.924-.576,15.8,15.8,0,0,0-1.843,1.332c-.019.015-.038.03-.057.047a15.706,15.706,0,0,0-5.207,15.4C2.016,60.764,6.427,68.331,12.8,74.7A49.5,49.5,0,0,0,25.3,83.89a.958.958,0,1,0,.869-1.707,48.26,48.26,0,0,1-12.02-8.839C8.036,67.23,3.808,60,2.244,52.975A13.784,13.784,0,0,1,6.182,40.03l10.2,10.2-1.334.822a3.979,3.979,0,0,0-1.6,4.926A33.206,33.206,0,0,0,31.529,74.052a3.974,3.974,0,0,0,4.913-1.6l.823-1.335,10.2,10.2a13.784,13.784,0,0,1-12.945,3.938,33.518,33.518,0,0,1-5.24-1.648.958.958,0,0,0-.718,1.776A35.419,35.419,0,0,0,34.1,87.119a15.607,15.607,0,0,0,3.4.374,15.776,15.776,0,0,0,13.378-7.482,3.983,3.983,0,0,0-.576-4.924ZM7.66,38.8c.267-.193.542-.378.826-.553a2.074,2.074,0,0,1,2.564.3l7.4,7.4a2.082,2.082,0,0,1-.38,3.244l-.013.008ZM49.248,79l0,0c-.175.284-.36.558-.553.826L38.3,69.438l.008-.012a2.082,2.082,0,0,1,3.244-.38l7.4,7.4a2.074,2.074,0,0,1,.3,2.561Z" transform="translate(0 -24.324)" fill="#349cc8"/><path d="M42.9,31.674a4,4,0,0,0-6.229.729l-1.864,3.024a2.065,2.065,0,0,1-2.553.837A31.292,31.292,0,0,1,15.217,19.227a2.071,2.071,0,0,1,.833-2.564L19.073,14.8A4,4,0,0,0,19.8,8.571l-7.4-7.4A3.983,3.983,0,0,0,7.481.6,15.8,15.8,0,0,0,5.638,1.93c-.019.015-.038.03-.057.047a15.706,15.706,0,0,0-5.207,15.4C2.016,24.746,6.428,32.313,12.8,38.68A49.5,49.5,0,0,0,25.3,47.872a.958.958,0,1,0,.869-1.707,48.26,48.26,0,0,1-12.02-8.839C8.036,31.212,3.808,23.979,2.244,16.957A13.784,13.784,0,0,1,6.182,4.012l10.2,10.2-1.334.822a3.979,3.979,0,0,0-1.6,4.926A33.206,33.206,0,0,0,31.529,38.034a3.974,3.974,0,0,0,4.913-1.6l.823-1.335,10.2,10.2a13.784,13.784,0,0,1-12.945,3.938,33.517,33.517,0,0,1-5.24-1.648.958.958,0,0,0-.718,1.776A35.418,35.418,0,0,0,34.1,51.1a15.607,15.607,0,0,0,3.4.374,15.776,15.776,0,0,0,13.378-7.482,3.983,3.983,0,0,0-.576-4.924ZM7.66,2.782c.267-.193.542-.378.826-.553a2.074,2.074,0,0,1,2.564.3l7.4,7.4a2.082,2.082,0,0,1-.38,3.244l-.013.008Zm41.587,40.2,0,0c-.175.284-.36.558-.553.826L38.3,33.42l.008-.012a2.082,2.082,0,0,1,3.244-.38l7.4,7.4a2.074,2.074,0,0,1,.3,2.561Z" transform="translate(80.586 44.644) rotate(180)" fill="#349cc8"/></g></svg>