<svg xmlns="http://www.w3.org/2000/svg" width="80.832" height="70" viewBox="0 0 80.832 70"><g opacity="0.5"><path d="M79.351,48.23,66.441,35.319a3.421,3.421,0,0,0-5.84,2.419v3.243a.147.147,0,0,1-.045.107.114.114,0,0,1-.1.04l-.386,0a27.875,27.875,0,0,0-12.2,2.778A1.191,1.191,0,0,0,48.9,46.049,25.449,25.449,0,0,1,60.427,43.51a2.526,2.526,0,0,0,2.556-2.529V37.738A1.039,1.039,0,0,1,64.756,37L77.667,49.914a2.674,2.674,0,0,1,0,3.782L64.757,66.607a1.039,1.039,0,0,1-1.774-.735V62.316a2.519,2.519,0,0,0-1.094-2.083,19.033,19.033,0,0,0-27.457,6.631,25.835,25.835,0,0,1,10.731-18.6,1.191,1.191,0,1,0-1.381-1.941A28.168,28.168,0,0,0,32.294,73.747a1.191,1.191,0,0,0,1.176,1h.016a1.191,1.191,0,0,0,1.165-1.033A16.655,16.655,0,0,1,60.544,62.2a.141.141,0,0,1,.057.117v3.556a3.421,3.421,0,0,0,5.84,2.419L79.351,55.381a5.056,5.056,0,0,0,0-7.151ZM53.357,79.683a4.971,4.971,0,0,0-7.746.906l-2.318,3.76a2.569,2.569,0,0,1-3.174,1.041A38.916,38.916,0,0,1,18.925,64.2a2.576,2.576,0,0,1,1.036-3.188L23.719,58.7a4.971,4.971,0,0,0,.906-7.746l-9.2-9.2A4.953,4.953,0,0,0,9.3,41.036a19.644,19.644,0,0,0-2.292,1.656c-.024.018-.048.038-.07.058A19.533,19.533,0,0,0,.465,61.9c2.042,9.168,7.528,18.579,15.447,26.5A61.559,61.559,0,0,0,31.465,99.827a1.191,1.191,0,1,0,1.08-2.123A60.017,60.017,0,0,1,17.6,86.712c-7.6-7.6-12.861-16.6-14.807-25.331a17.142,17.142,0,0,1,4.9-16.1L20.37,57.964l-1.659,1.023a4.949,4.949,0,0,0-1.987,6.126A41.3,41.3,0,0,0,39.21,87.592,4.942,4.942,0,0,0,45.32,85.6l1.024-1.66L59.025,96.62a17.142,17.142,0,0,1-16.1,4.9,41.684,41.684,0,0,1-6.516-2.05,1.191,1.191,0,0,0-.892,2.209,44.048,44.048,0,0,0,6.891,2.166,19.409,19.409,0,0,0,4.225.466A19.62,19.62,0,0,0,63.271,95a4.954,4.954,0,0,0-.716-6.124ZM9.527,43.752c.333-.24.674-.47,1.027-.688a2.579,2.579,0,0,1,3.189.373l9.2,9.2a2.589,2.589,0,0,1-.472,4.034l-.016.01Zm51.719,50,0,.005c-.218.353-.448.694-.687,1.027L47.629,81.855l.009-.015a2.589,2.589,0,0,1,4.034-.472l9.2,9.2a2.58,2.58,0,0,1,.376,3.185Z" transform="translate(0 -34.308)" fill="#ff4b23"/></g></svg>