<svg xmlns="http://www.w3.org/2000/svg" xmlns:xlink="http://www.w3.org/1999/xlink" width="1648" height="809" viewBox="0 0 1648 809"><defs><radialGradient id="a" cx="0.717" cy="0.605" r="0.923" gradientTransform="matrix(1, 0.016, -0.016, 1, 0.01, -0.012)" gradientUnits="objectBoundingBox"><stop offset="0" stop-color="#214760"/><stop offset="1" stop-color="#162b3a"/></radialGradient><linearGradient id="b" x1="1" y1="0.443" x2="0" y2="0.451" gradientUnits="objectBoundingBox"><stop offset="0" stop-color="#162b3a"/><stop offset="1" stop-color="#2f84bd"/></linearGradient><radialGradient id="c" cx="1.022" cy="0.151" r="1.218" gradientTransform="matrix(-0.601, 0, 0, 1, -0.035, 0)" gradientUnits="objectBoundingBox"><stop offset="0" stop-color="#ff4b23"/><stop offset="0.066" stop-color="#eb4d38"/><stop offset="0.231" stop-color="#be5368"/><stop offset="0.397" stop-color="#995890"/><stop offset="0.558" stop-color="#5c7aaf"/><stop offset="0.715" stop-color="#349cc8"/><stop offset="0.865" stop-color="#2f84bd"/><stop offset="1" stop-color="#214760"/></radialGradient><linearGradient id="d" x1="-2.207" y1="0.5" x2="-1.207" y2="0.5" gradientUnits="objectBoundingBox"><stop offset="0" stop-color="#c0bff6"/><stop offset="0.294" stop-color="#c4c3f6"/><stop offset="0.64" stop-color="#d2d2f9"/><stop offset="1" stop-color="#e9e9fd"/></linearGradient><linearGradient id="e" x1="-17.676" y1="0.5" x2="-16.676" y2="0.5" gradientUnits="objectBoundingBox"><stop offset="0" stop-color="#5761d7"/><stop offset="0.178" stop-color="#5b65d8"/><stop offset="0.388" stop-color="#6a72de"/><stop offset="0.613" stop-color="#8188e8"/><stop offset="0.849" stop-color="#a2a6f5"/><stop offset="1" stop-color="#bcbeff"/></linearGradient><linearGradient id="f" x1="-1.081" y1="0.5" x2="-0.081" y2="0.5" gradientUnits="objectBoundingBox"><stop offset="0" stop-color="#4a4cf9"/><stop offset="0.14" stop-color="#4e50f9"/><stop offset="0.305" stop-color="#5d5ff9"/><stop offset="0.482" stop-color="#7576fa"/><stop offset="0.669" stop-color="#9697fa"/><stop offset="0.86" stop-color="#c0c0fc"/><stop offset="1" stop-color="#e4e4fd"/></linearGradient><clipPath id="g"><path d="M687.615,246.588,409.225,85.933,374.247,293.9,652.457,454.447Z" transform="translate(-374.247 -85.933)" fill="none"/></clipPath><linearGradient id="h" x1="-1.85" y1="0.5" x2="-0.85" y2="0.5" xlink:href="#e"/><linearGradient id="i" x1="5.741" y1="0.282" x2="7.515" y2="1.028" gradientUnits="objectBoundingBox"><stop offset="0" stop-color="#42e8e0"/><stop offset="0.106" stop-color="#36b5bf"/><stop offset="0.22" stop-color="#2c87a0"/><stop offset="0.338" stop-color="#235f86"/><stop offset="0.459" stop-color="#1b3e71"/><stop offset="0.582" stop-color="#162560"/><stop offset="0.711" stop-color="#121355"/><stop offset="0.846" stop-color="#0f084e"/><stop offset="1" stop-color="#0f054c"/></linearGradient></defs><g transform="translate(-136 -136)"><rect width="1648" height="809" rx="15" transform="translate(136 136)" fill="url(#a)"/><rect width="1648" height="809" rx="15" transform="translate(136 136)" fill="url(#b)"/><g transform="translate(555 166.812)"><path d="M1194.524,40.288a10.163,10.163,0,0,0-9.2,0c-1.906,1.1-2.379,2.719-1.421,4.075l-142.362,82.194,0,103.754-34.681,20.022,0,112.853-118.8,68.59-18.513-10.687L961.157,368.2V306.333l-.365-.211L856.635,245.987V225.009L915.539,191a10.274,10.274,0,0,0,8.393-.379c2.539-1.466,2.539-3.843,0-5.307a10.152,10.152,0,0,0-9.194,0c-2.291,1.321-2.5,3.377-.657,4.845l-58.9,34.009v22.659l.362.211L959.7,307.172v60.184L890.48,407.32l0-25.774,31.732-18.32a10.275,10.275,0,0,0,8.393-.379c2.539-1.466,2.539-3.843,0-5.31a10.163,10.163,0,0,0-9.2,0c-2.289,1.323-2.494,3.379-.653,4.847l-31.732,18.322,0,27.453L868.09,420.247l-24.756-14.293,0-44.884,46.694-26.961V303.081l-.364-.211-98.3-56.752c1.839-1.468,1.634-3.524-.655-4.847a10.163,10.163,0,0,0-9.2,0c-2.539,1.466-2.539,3.843,0,5.31a10.274,10.274,0,0,0,8.393.379l98.663,56.961V333.27l-45.238,26.118V328.452l-.365-.213-60.141-34.72c1.841-1.468,1.636-3.524-.653-4.847a10.163,10.163,0,0,0-9.2,0c-2.539,1.466-2.539,3.843,0,5.31a10.282,10.282,0,0,0,8.393.377l60.506,34.933,0,75.824-17.389-10.04-28.648,16.541-25.95-14.981v-36.4l-.362-.211-68.6-39.607,0-34.318a8.988,8.988,0,0,0,3.87-1.059c2.539-1.466,2.539-3.843,0-5.31a10.163,10.163,0,0,0-9.2,0c-2.539,1.466-2.539,3.843,0,5.31a8.981,8.981,0,0,0,3.87,1.059l0,35.158.365.211,68.6,39.607v34.724l-111.647-64.46,0-68.328,60.553-34.959,55.567,0,.168-.1,95.35-55.049a10.283,10.283,0,0,0,8.393-.379c2.539-1.466,2.539-3.843,0-5.31a10.163,10.163,0,0,0-9.2,0c-2.289,1.323-2.494,3.379-.655,4.847L772.518,226.59l-52.655,0L895.028,125.461a10.274,10.274,0,0,0,8.393-.379c2.539-1.466,2.539-3.843,0-5.31a10.159,10.159,0,0,0-9.194,0c-2.291,1.323-2.5,3.379-.655,4.847L655.334,262.165v70.009l.362.211,138.688,80.073-27.915,16.115L529.687,291.864l0-81.572-.365-.213L448.8,163.59c1.839-1.468,1.634-3.524-.655-4.847a10.163,10.163,0,0,0-9.2,0c-2.539,1.466-2.539,3.843,0,5.31a10.274,10.274,0,0,0,8.393.379l80.89,46.7,0,81.574.362.211,236.422,136.5-26.576,15.343-234.162-135.2H364.631l-87.279-50.39,0-77.438a8.163,8.163,0,0,0,2.525-.889c2.539-1.464,2.539-3.841,0-5.307a10.163,10.163,0,0,0-9.2,0c-2.539,1.466-2.539,3.843,0,5.307a9.659,9.659,0,0,0,5.215,1.067l0,78.1.365.211,87.979,50.8,139.645,0L701.557,425.143l-39.759,0-67.463-38.952H542.366l-.168.1L470.125,427.9a10.282,10.282,0,0,0-8.393.379c-2.539,1.466-2.539,3.843,0,5.31a10.163,10.163,0,0,0,9.2,0c2.289-1.323,2.494-3.381.653-4.847l71.176-41.094h51.187L661.409,426.6l42.669,0,32.908,19L666.053,486.55,645.882,474.9V444.34l-51.238-29.582c1.841-1.468,1.636-3.524-.653-4.847a10.163,10.163,0,0,0-9.2,0c-2.539,1.466-2.539,3.843,0,5.31a10.279,10.279,0,0,0,8.4.377l51.236,29.582v28.884l-54.641-31.548H563.909l-.168.1-30.848,17.81a10.286,10.286,0,0,0-8.4.377c-2.539,1.466-2.539,3.843,0,5.31a10.163,10.163,0,0,0,9.2,0c2.289-1.323,2.494-3.379.653-4.847L564.3,443.971h25.094l75.2,43.418-13.662,7.89,43.6,25.172-20.413,11.784H643.247l-22.092-12.753c1.761-1.464,1.523-3.485-.735-4.789a10.176,10.176,0,0,0-9.2,0c-2.539,1.466-2.539,3.843,0,5.31a10.25,10.25,0,0,0,8.494.33l23.138,13.361H671.6L619.537,563.75l-122.5-70.723-88.143,0-.168.1-49.624,28.651a10.279,10.279,0,0,0-8.4.379c-2.539,1.466-2.539,3.841,0,5.307a10.159,10.159,0,0,0,9.194,0c2.291-1.321,2.5-3.379.655-4.845l48.732-28.135,87.358,0,94.478,54.547H550.689l-39.53-22.821c1.841-1.466,1.636-3.524-.653-4.847a10.163,10.163,0,0,0-9.2,0c-2.539,1.466-2.539,3.843,0,5.31a10.282,10.282,0,0,0,8.393.379L550.3,550.485h43.353l24.432,14.106L555.89,600.5H357.137l-154.41-89.148c1.841-1.466,1.636-3.524-.653-4.847a10.169,10.169,0,0,0-9.2,0c-2.539,1.466-2.539,3.843,0,5.31a10.279,10.279,0,0,0,8.4.379l155.473,89.762,196.624,0L528.7,616.2H381.573l-.168.1-72.556,41.891a10.287,10.287,0,0,0-8.4.377c-2.539,1.466-2.539,3.843,0,5.31a10.163,10.163,0,0,0,9.2,0c2.289-1.323,2.494-3.379.653-4.847l71.661-41.372,147.127,0,.168-.1L695.99,521.29,714.5,531.978l-175.294,101.2H411.01l-.168.1-154.848,89.4-214.525,0L0,698.744v1.681l41.078,23.716,215.307,0,.168-.1,97.175-56.1,0,33.207-64.052,36.982a10.28,10.28,0,0,0-8.4.377c-2.539,1.466-2.539,3.843,0,5.31a10.163,10.163,0,0,0,9.2,0c2.289-1.323,2.494-3.379.655-4.847l64.052-36.982,0-34.693h-.334L411.4,634.639H539.6l.168-.1L715.956,532.818l21.025,12.141L395.11,742.336V778h1.454l0-34.824L738.437,545.8l25.98,15L588.067,662.614v18.2L556.8,698.869v41.864l-60.635,35a10.283,10.283,0,0,0-8.393.379A3.753,3.753,0,0,0,486.017,778H498.7a3.3,3.3,0,0,0-1.073-1.423l60.635-35V699.709l29.81-17.212,0,67.042,17.6,10.158-31.7,18.3h2.91l30.25-17.464L637.366,778h2.91l-50.755-29.3,0-85.241L765.874,561.636l23.65,13.656-124.8,72.052a10.288,10.288,0,0,0-8.4.377c-2.539,1.466-2.539,3.843,0,5.31a10.163,10.163,0,0,0,9.2,0c2.289-1.323,2.494-3.379.655-4.847l124.8-72.052,22.831,13.183L664.528,675.5H623.954a3.732,3.732,0,0,0-1.779-1.925,10.163,10.163,0,0,0-9.2,0c-2.539,1.466-2.539,3.843,0,5.307a10.15,10.15,0,0,0,9.2,0,3.741,3.741,0,0,0,1.781-1.927h40.961l.17-.1,150.178-86.705,9.219,5.322,7.1-4.1,35.768,20.65,0,28.739L837.793,657.83v-.078H791.424l-.17.1-50.88,29.378a10.279,10.279,0,0,0-8.4.379c-2.539,1.464-2.539,3.841,0,5.307a10.163,10.163,0,0,0,9.2,0c2.289-1.321,2.494-3.379.653-4.847l49.985-28.859h43.594l-86.873,50.157a10.248,10.248,0,0,0-8.576.293c-2.539,1.466-2.539,3.841,0,5.307a10.163,10.163,0,0,0,9.2,0c2.234-1.29,2.5-3.282.8-4.742l108.359-62.559,0,13.828-64.466,37.222v26.279L741.357,755.3a10.267,10.267,0,0,0-8.393.377c-2.539,1.466-2.541,3.843,0,5.31a10.159,10.159,0,0,0,9.194,0c2.291-1.323,2.5-3.381.655-4.847L795.3,725.832V699.553l64.468-37.22,0-15.509,9.03-5.213v-30.42l-35.768-20.65,23.5-13.572,73.6,42.493,0,48.308L880.16,696.623a10.248,10.248,0,0,0-8.576.293c-2.539,1.464-2.539,3.841,0,5.307a10.163,10.163,0,0,0,9.2,0c2.234-1.288,2.5-3.282.8-4.742l48.553-28.03v39.022l-38.358,22.145,0,47.382h1.456l0-46.543,36.9-21.306,0,67.849h1.456l0-159.378-73.6-42.493,26.394-15.238,96.194,55.538,0,132.267,46.24,26.7V778h1.456v-3.446l-46.24-26.7,0-132.267-96.194-55.538L905.4,548.757l129.822,74.952,0,112.856L1107,778h2.912l-73.228-42.276,0-112.856L906.86,547.917l31.706-18.306L1154.56,654.317l0,56.154,74.024,42.738V751.53l-72.568-41.9,0-56.154-121.495-70.144H1130.6l97.977,56.566V638.22l-97.588-56.343H1032l-91.982-53.105L976.868,507.5l79.065,45.65,126.953,0,45.695,26.384v-1.681l-10.017-5.783,10.017,0v-1.456l-12.538,0-32.766-18.92-126.953,0L1034.2,538.918h53.972l.168-.1,27.074-15.63,112.794,0,.375.215v-1.671l-110.646,0,30.477-17.6a10.279,10.279,0,0,0,8.4-.379c2.539-1.464,2.539-3.841,0-5.307a10.163,10.163,0,0,0-9.2,0c-2.291,1.323-2.494,3.379-.653,4.847l-59.179,34.165h-56.1l-53.355-30.8,19.717-11.383-12.687-7.324h36.882l48.208,27.832c-1.841,1.468-1.636,3.526.655,4.847a10.159,10.159,0,0,0,9.194,0c2.539-1.466,2.539-3.843,0-5.31a10.283,10.283,0,0,0-8.393-.377l-49.274-28.448H982.831l-26.982-15.578,16.592-9.581h29.435L1027.75,446.4h19.311l43.609,25.176c-1.958,1.472-1.8,3.581.538,4.931a10.176,10.176,0,0,0,9.2,0c2.539-1.468,2.539-3.843,0-5.31a10.31,10.31,0,0,0-8.254-.446l-44.7-25.806h-20.091l-25.876,14.94H974.964l53.046-30.626h28.642l59.7,34.468h112.227v-1.456l-111.838,0-59.7-34.47h-29.422l-.168.1L954.4,470.076l-19.17-11.067,82.552-47.663H1076l48.036,27.733h104.542v-1.456H1124.429l-45.515-26.277h149.668V409.89H1017.389l-.17.1L933.77,458.169l-21.779-12.575,115.118-66.462,201.473,0v-1.456l-146.818,0,146.818-84.766v-1.679l-149.727,86.445h-50.687l109.147-63.016V300.772l52.225-30.151a10.274,10.274,0,0,0,8.393-.379c2.539-1.466,2.539-3.841,0-5.307a10.159,10.159,0,0,0-9.194,0c-2.291,1.321-2.5,3.379-.655,4.847L1159.646,286.2l0-38.061,68.934-39.8v-1.681l-70.39,40.642,0,39.74-22.332,12.894v13.889l-110.04,63.532.367.633L910.537,444.755l-21.027-12.14,118.8-68.59,0-112.853L1228.582,124v-1.681L1043,229.469l0-102.071,142.038-82.006c.1.068.178.141.289.2a10.163,10.163,0,0,0,9.2,0C1197.063,44.131,1197.063,41.754,1194.524,40.288Zm-199.4,454.987L824.483,593.8,653.845,495.279l170.644-98.522Z" transform="translate(0 0)" opacity="0.8" fill="url(#c)"/><path d="M1159.964,167.532l-30.334,17.515,0,56.429L860.167,397.048l-20.476-11.821,139-80.253V290.628l24.643-14.229v-33l47.79-27.592a8.109,8.109,0,0,0,6.616-.3c2-1.157,2-3.031,0-4.185a8,8,0,0,0-7.247,0c-1.806,1.042-1.966,2.664-.516,3.819l-47.79,27.592,0,33L978.688,289.3l0-52.839-.287-.166-13.582-7.84,81.482-47.044v-52.9l57.885-33.419a8.093,8.093,0,0,0,6.616-.3c2-1.155,2-3.028,0-4.183a8.012,8.012,0,0,0-7.247,0c-1.8,1.042-1.966,2.664-.516,3.819l-57.885,33.422,0,52.9-81.482,47.044L831.2,151.311l0-59.181a7.1,7.1,0,0,0,3.051-.833c2-1.157,2-3.028,0-4.185a8.016,8.016,0,0,0-7.249,0c-2,1.157-2,3.028,0,4.185a7.094,7.094,0,0,0,3.049.833v59.842l.287.166,79.68,46H851.954L805,171.034c1.45-1.157,1.288-2.777-.516-3.819a8.016,8.016,0,0,0-7.249,0c-2,1.155-2,3.028,0,4.185a8.1,8.1,0,0,0,6.616.3l47.794,27.594h60.338v-.016l65.559,37.851v67.187l-139,80.251L819.9,373.8l98.362-56.793a8.106,8.106,0,0,0,6.618-.3c2-1.155,2-3.028,0-4.185a8.016,8.016,0,0,0-7.249,0c-1.8,1.042-1.966,2.664-.516,3.821l-98.366,56.791-17.995-10.39,117.665-67.932,31.978,0a2.94,2.94,0,0,0,1.4,1.519,8.012,8.012,0,0,0,7.247,0c2-1.155,2-3.031,0-4.185a8.012,8.012,0,0,0-7.247,0,2.948,2.948,0,0,0-1.4,1.519H918.115l-.133.078-118.374,68.34-7.263-4.194-.287.164-5.3,3.063-28.192-16.277,0-22.649,23.292-13.449v.061l36.546,0,40.238-23.23a8.1,8.1,0,0,0,6.616-.3c2-1.155,2-3.028,0-4.183a8.005,8.005,0,0,0-7.247,0c-1.806,1.042-1.968,2.662-.518,3.819l-39.4,22.747H783.741l68.469-39.532a8.073,8.073,0,0,0,6.757-.231c2-1.155,2-3.028,0-4.183a8,8,0,0,0-7.249,0c-1.761,1.016-1.97,2.586-.633,3.737l-85.4,49.309v-10.9l50.812-29.339V255.808l41.37-23.886a8.106,8.106,0,0,0,6.618-.3c2-1.155,2-3.028,0-4.185a8.016,8.016,0,0,0-7.249,0c-1.8,1.042-1.966,2.664-.516,3.821l-41.37,23.886v20.712l-50.814,29.337v12.226l-7.118,4.108v23.978l28.19,16.277-18.523,10.695-58.012-33.493,0-38.074,39.388-22.741a8.085,8.085,0,0,0,6.759-.231c2-1.155,2-3.028,0-4.183a8,8,0,0,0-7.247,0c-1.761,1.016-1.97,2.586-.633,3.737l-38.268,22.094V268.829l30.233-17.454,0-57.858a7.133,7.133,0,0,0,3.051-.835c2-1.157,2-3.031,0-4.185a8.016,8.016,0,0,0-7.249,0c-2,1.157-2,3.028,0,4.185a7.124,7.124,0,0,0,3.049.835v57.195L709.074,267.5l0-102.021h-1.147l0,174.166,58.007,33.493-20.8,12.009-75.818-43.774,0-104.251-36.444-21.044V176.867l-32.179-18.578c1.45-1.157,1.288-2.779-.516-3.821a8.016,8.016,0,0,0-7.249,0c-2,1.157-2,3.031,0,4.185a8.1,8.1,0,0,0,6.616.3l32.181,18.58,0,39.212,36.446,21.044,0,104.253,75.816,43.774-15.417,8.9L626.241,335.637l0-88.947-.287-.166-90.573-52.293c1.45-1.157,1.29-2.779-.516-3.821a8.012,8.012,0,0,0-7.247,0c-2,1.157-2,3.028,0,4.185a8.1,8.1,0,0,0,6.616.3l90.86,52.458,0,88.949.287.166,102.036,58.913L702.429,409.8,532.185,311.514v-44.26l-.287-.166L389.372,184.8c1.45-1.157,1.288-2.779-.516-3.819a8,8,0,0,0-7.249,0c-2,1.155-2,3.028,0,4.183a8.1,8.1,0,0,0,6.616.3l142.814,82.454v44.26l.287.166,95.469,55.12-75.728,0L463.4,316.85c1.452-1.157,1.29-2.779-.516-3.821a8.012,8.012,0,0,0-7.247,0c-2,1.155-2,3.028,0,4.185a8.1,8.1,0,0,0,6.616.3l88.505,51.1,78.023,0,72.5,41.86-29.042,16.766-62.318-35.979H509.857l-113.81-65.709-63.137,0L307.17,310.686c1.45-1.157,1.288-2.777-.516-3.819a8.016,8.016,0,0,0-7.249,0c-2,1.155-2,3.028,0,4.183a8.1,8.1,0,0,0,6.616.3L332.6,326.7l63.137,0,86,49.651h-74.28l-35.772-20.652c1.45-1.157,1.288-2.779-.516-3.821a8.016,8.016,0,0,0-7.249,0c-2,1.155-2,3.028,0,4.185a8.1,8.1,0,0,0,6.616.3l36.614,21.138h76.575L509.548,392.4H609.612l17.438,10.068H584.51l-.133.076L563.04,414.866l-88.9,0-25.081-14.479h-50.29a2.937,2.937,0,0,0-1.4-1.517,8,8,0,0,0-7.247,0c-2,1.155-2,3.028,0,4.183a8.012,8.012,0,0,0,7.247,0,2.937,2.937,0,0,0,1.4-1.517h49.983l25.079,14.479,87.225,0-24.023,13.871a8.106,8.106,0,0,0-6.618.3c-2,1.157-2,3.028,0,4.185a8.016,8.016,0,0,0,7.249,0c1.8-1.042,1.966-2.662.518-3.819l46.641-26.931h44.219l42.05,24.279-15.537,8.973.862.5,9.137,5.275-29.066,0-38-21.938c1.448-1.157,1.288-2.779-.518-3.821a8.012,8.012,0,0,0-7.247,0c-2,1.157-2,3.031,0,4.185a8.1,8.1,0,0,0,6.614.3l38.84,22.422,31.362,0,21.267,12.28-13.078,7.552h-23.2l-.133.076-20.261,11.7h-15.22l-34.372-19.846c1.542-1.159,1.415-2.822-.426-3.882a8,8,0,0,0-7.247,0c-2,1.155-2,3.028,0,4.183a8.127,8.127,0,0,0,6.5.352l35.234,20.341h15.834l.133-.078,20.261-11.7h20.9l-41.809,24.138H609.356L562.3,461.739H420.388l-88.02-50.818c1.523-1.159,1.39-2.813-.442-3.872a8.016,8.016,0,0,0-7.249,0c-2,1.157-2,3.028,0,4.185a8.123,8.123,0,0,0,6.526.34l88.878,51.314H561.988l47.059,27.166h23.189l.133-.076,57.586-33.245,15.105,8.721-65.066,37.568H594.1L556.24,481.16l-97.173,0a2.937,2.937,0,0,0-1.4-1.517,8,8,0,0,0-7.247,0c-2,1.155-2,3.028,0,4.183a8.016,8.016,0,0,0,7.249,0,2.947,2.947,0,0,0,1.4-1.517l96.864,0L591.8,503.021H454.876l-.131.076-130.49,75.341a8.1,8.1,0,0,0-6.616.3c-2,1.157-2,3.028,0,4.185a8.012,8.012,0,0,0,7.247,0c1.8-1.042,1.968-2.662.518-3.819L455.185,504.17H640.3l.133-.076,65.774-37.978,17.163,9.909L632.64,528.414H472.873l-.131.076-139.9,80.773-163.01,0L74.765,554.378c1.45-1.157,1.286-2.777-.518-3.819a8.012,8.012,0,0,0-7.247,0c-2,1.155-2,3.029,0,4.185a8.109,8.109,0,0,0,6.616.3l95.905,55.37,163.625,0,.133-.076,139.9-80.773H589.557L418.676,628.22l0,25.97-68.166,39.356a8.109,8.109,0,0,0-6.616.3c-2,1.157-2,3.03,0,4.185a8.016,8.016,0,0,0,7.249,0c1.8-1.042,1.966-2.664.516-3.819l68.164-39.354,0-25.972L591.857,529.56H631.8l-86.023,49.667v10.947l-41.164,23.767a8.1,8.1,0,0,0-6.616.3c-2,1.155-2,3.028,0,4.183a8,8,0,0,0,7.247,0c1.806-1.04,1.968-2.662.518-3.819l22.411-12.939v30L398.689,706.419a8.1,8.1,0,0,0-6.614.3c-2,1.155-2,3.028,0,4.185a8.012,8.012,0,0,0,7.247,0c1.8-1.042,1.966-2.664.516-3.821l129.484-74.755V601l17.6-10.162V579.891l86.732-50.075-.287-.5,91.153-52.628,16.57,9.565-93.638,54.064,0,88.949L475.228,728.7h2.3l142.591-82.323,0,80.448-3.25,1.876h2.3l2.1-1.212,0-81.774L648.6,629.934l0-88.951,93.638-54.064,14.589,8.424-72.206,41.686,0,48.764.289.166,82.1,47.4v16.535l-46.43,26.8a8.112,8.112,0,0,0-6.614.3c-2,1.157-2,3.028,0,4.185a8.012,8.012,0,0,0,7.247,0c1.806-1.042,1.968-2.664.518-3.821l46.426-26.8,0-17.864-.287-.166-82.1-47.4V537.694l54.559-31.5,0,20.315-25.012,14.44a8.1,8.1,0,0,0-6.614.3c-2,1.155-2,3.028,0,4.183a8,8,0,0,0,7.247,0c1.8-1.042,1.966-2.662.518-3.819l25.01-14.44V505.533l16.5-9.528L777.49,507.27l0,35.379-36.8,21.248v24.459l.287.166,77.478,44.731c-1.45,1.157-1.288,2.777.516,3.819a8,8,0,0,0,7.249,0c2-1.155,2-3.028,0-4.183a8.1,8.1,0,0,0-6.616-.3l-77.765-44.9V564.561l35.656-20.585v24.383l47.687,27.535c-1.448,1.157-1.286,2.777.518,3.819a8.016,8.016,0,0,0,7.249,0c2-1.155,2-3.028,0-4.185a8.1,8.1,0,0,0-6.616-.3L778.636,567.7l0-59.762,13.7,7.912.289-.164,22.295-12.873,20.452,11.809,0,28.7,54.359,31.382,0,27.049a7.123,7.123,0,0,0-3.049.833c-2,1.157-2,3.031,0,4.185a8.016,8.016,0,0,0,7.249,0c2-1.155,2-3.028,0-4.185a7.124,7.124,0,0,0-3.051-.833V574.031l-54.357-31.382,0-27.369,88,50.806,0,53.855L876.794,647.5H833l-.133.076-75.152,43.391a8.1,8.1,0,0,0-6.616.3c-2,1.157-2,3.028,0,4.185a8.016,8.016,0,0,0,7.249,0c1.8-1.042,1.966-2.664.516-3.819l74.446-42.984h41.5l-138.062,79.71a8.1,8.1,0,0,0-6.616.3c-.027.014-.043.033-.07.049h8.383L925.669,620.6l0-55.182-.287-.166L816.073,502.145l22-12.7L1024.7,597.2l0,64.3,63.755,36.81c-1.45,1.155-1.288,2.777.516,3.817a8,8,0,0,0,7.249,0c2-1.155,2-3.029,0-4.183a8.109,8.109,0,0,0-6.616-.3l-63.755-36.81V596.533l-.287-.166L839.22,488.782l20.945-12.093,184.566,106.559H1154.8l5.166,2.981V584.9L1155.1,582.1H1045.04l-155.8-89.951h31.335l53.177,30.7,40.959,0,.133-.076,56.807-32.8a8.109,8.109,0,0,0,6.616-.3c2-1.155,2-3.028,0-4.185a8.016,8.016,0,0,0-7.249,0c-1.8,1.042-1.966,2.664-.516,3.821L1014.4,521.7l-40.345,0L920.881,491H887.249l-25.935-14.974,55.907-32.277,15.9,9.177v24.092L973.5,500.335c-1.448,1.157-1.286,2.777.518,3.819a8.016,8.016,0,0,0,7.249,0c2-1.157,2-3.028,0-4.185a8.1,8.1,0,0,0-6.616-.3l-40.388-23.316,0-22.766,43.068,24.864h20.394l.133-.076,24.316-14.039a8.1,8.1,0,0,0,6.614-.3c2-1.155,2-3.028,0-4.183a8.012,8.012,0,0,0-7.247,0c-1.806,1.042-1.966,2.664-.516,3.819L997.422,477.3h-19.78l-59.271-34.222,10.766-6.217-.86-.5-33.505-19.342,16.092-9.29H935.2l17.411,10.054c-1.386,1.153-1.2,2.746.582,3.774a8,8,0,0,0,7.247,0c2-1.155,2-3.028,0-4.183a8.082,8.082,0,0,0-6.692-.262L935.5,406.588H912.853L953.885,382.9l96.548,55.743h69.472l.133-.076,39.116-22.583a7.56,7.56,0,0,0,.809.225v-5.281a6.12,6.12,0,0,0-1.441.571c-1.8,1.042-1.966,2.662-.516,3.819L1119.6,437.493h-68.856l-74.46-42.99,31.867,0,31.155,17.988c-1.45,1.157-1.288,2.777.516,3.819a8,8,0,0,0,7.249,0c2-1.155,2-3.028,0-4.183a8.1,8.1,0,0,0-6.616-.3l-31.994-18.474-34.165,0-19.26-11.119,49.016-28.3h155.913v-1.149l-153.925,0,19.442-11.225,115.964,0,.133-.078,18.386-10.615v-1.325l-18.826,10.869-115.964,0-.133.076L893.623,416.363l-14.587-8.422,138.162-79.77,101.045,0,.133-.076,41.588-24.011v-1.325l-42.028,24.264-101.045,0-.133.076L877.885,407.278l-16.57-9.567,269.459-155.573,0-56.429,29.187-16.852ZM926.842,436.866l-134.5,77.655L657.846,436.87l134.5-77.653Z" transform="translate(68.619 49.299)" fill="#8f93fb" opacity="0.1"/><g transform="translate(590.352 127.96)"><path d="M571.768,470.956a12.715,12.715,0,0,1-6.215-1.571L291.282,311.035c-1.89-1.091-2.973-2.607-2.973-4.161a3.961,3.961,0,0,1,2.244-3.391l163.668-94.494c2.912-1.681,7.8-1.495,11.123.42L739.614,367.761c1.89,1.091,2.973,2.607,2.973,4.161a3.962,3.962,0,0,1-2.246,3.391L576.676,469.805A9.984,9.984,0,0,1,571.768,470.956ZM292.261,309.34,566.534,467.69c2.678,1.552,6.876,1.74,9.161.42l163.67-94.492a2.153,2.153,0,0,0,1.265-1.7c0-.823-.745-1.745-1.994-2.463L464.365,211.107c-2.682-1.548-6.882-1.741-9.163-.42l-163.67,94.492a2.153,2.153,0,0,0-1.265,1.7c0,.823.745,1.747,1.994,2.465Z" transform="translate(-288.309 48.728)" fill="#349cc8"/><g transform="translate(1.859)"><g transform="translate(170.668)"><path d="M374.747,292.159l34.671-205.7-2.787-1.175,4.187-2.4-.006.023a3.017,3.017,0,0,1,3.229.223L691.129,243.112c2.275,1.315,4,4.683,3.6,7.038L659.78,457.482a2.6,2.6,0,0,1-1.46,2.111l0,0-4.1,2.367-.7-3.827.233.072L378.344,299.2C376.069,297.885,374.347,294.514,374.747,292.159Z" transform="translate(-370.342 -82.541)" fill="url(#d)"/><path d="M553.936,164.737l4.556-2.015a6.269,6.269,0,0,1,.586,3.428L524.13,373.481a2.6,2.6,0,0,1-1.46,2.111l0,0-4.1,2.367-.7-3.827.233.072-13.936-8.047Z" transform="translate(-234.692 1.459)" fill="url(#e)"/><path d="M376.221,300.42,653.31,460.4c2.14,1.235,3.972.522,4.347-1.693L692.6,251.373c.4-2.355-1.323-5.723-3.6-7.038L411.918,84.357c-2.14-1.235-3.972-.522-4.347,1.693L372.624,293.382C372.224,295.737,373.946,299.107,376.221,300.42Z" transform="translate(-372.566 -81.27)" fill="#349cc8"/><g transform="translate(3.442 6.944)" opacity="0.51"><path d="M409.225,85.933l278.39,160.656L652.457,454.447,374.247,293.9Z" transform="translate(-374.247 -85.933)" fill="#214760"/></g></g><g transform="translate(0 218.432)"><path d="M289.288,278.761l15.122,7.9,151.63-87.543c2.537-1.464,6.968-1.28,9.9.41l261.52,150.989c2.5-1.4,13.912-6.886,13.912-6.886l-5.535,9-.022-.016a3.3,3.3,0,0,1-1.546,1.716l-159.7,92.2c-2.537,1.466-6.968,1.282-9.9-.409L297.053,291.6a4.785,4.785,0,0,1-2.244-2.388l-.021.014Z" transform="translate(-289.142 -179.883)" fill="url(#f)"/><path d="M291.7,290.58,565.972,448.93c3,1.734,7.543,1.923,10.144.42l163.668-94.492c2.6-1.5,2.273-4.124-.729-5.856L464.784,190.651c-3-1.734-7.544-1.923-10.144-.422L290.972,284.724C288.371,286.225,288.7,288.846,291.7,290.58Z" transform="translate(-289.217 -189.216)" fill="#e4e4fd"/><path d="M291.691,239.506l274.271,158.35c3,1.732,7.543,1.923,10.144.42l163.668-94.492a3.3,3.3,0,0,0,1.648-1.919,2.8,2.8,0,0,1-1.648,3.147L576.106,399.5c-2.6,1.5-7.142,1.315-10.144-.42L291.691,240.735c-1.945-1.124-2.748-2.617-2.377-3.94A4.637,4.637,0,0,0,291.691,239.506Z" transform="translate(-289.207 -139.371)" fill="#fff"/></g><g transform="translate(174.11 6.944)" opacity="0.15"><g clip-path="url(#g)"><g transform="translate(-0.271 111.995)"><path d="M374.185,230.17l15.122,7.9,151.63-87.543c2.537-1.466,6.968-1.282,9.9.41L812.353,301.924c2.5-1.4,13.914-6.888,13.914-6.888l-5.537,9-.021-.018a3.3,3.3,0,0,1-1.548,1.718l-159.7,92.2c-2.537,1.464-6.968,1.28-9.9-.412L381.952,243.015a4.789,4.789,0,0,1-2.246-2.388l-.021.014Z" transform="translate(-374.04 -131.294)" fill="url(#h)"/><path d="M376.6,241.989,650.868,400.341c3,1.732,7.543,1.921,10.144.42L824.68,306.266c2.6-1.5,2.273-4.122-.729-5.856L549.68,142.06c-3-1.732-7.544-1.921-10.142-.42l-163.67,94.492C373.27,237.634,373.6,240.257,376.6,241.989Z" transform="translate(-374.114 -140.627)" fill="#e4e4fd"/><path d="M737.593,300.406,463.323,142.056a11.962,11.962,0,0,0-6.778-1.378,11.417,11.417,0,0,1,4.757,1.378l274.273,158.35c3,1.734,3.327,4.355.727,5.856L572.634,400.756a8.276,8.276,0,0,1-3.366.958,9.62,9.62,0,0,0,5.387-.958l163.668-94.494C740.923,304.761,740.6,302.14,737.593,300.406Z" transform="translate(-287.757 -140.623)" fill="#fff"/><g transform="translate(67.802 68.742)" opacity="0.5"><path d="M456.662,179.558l-8.793-5.074a2.936,2.936,0,0,0-2.666.074l-9.771,5.709c-.768.448-.819,1.141-.113,1.548l8.793,5.076a2.94,2.94,0,0,0,2.668-.074l9.769-5.709C457.318,180.66,457.369,179.968,456.662,179.558Z" transform="translate(-378.317 -174.199)" fill="#2f84bd"/><path d="M463.292,183.388l-8.791-5.076a2.94,2.94,0,0,0-2.668.074l-9.771,5.709c-.768.448-.817,1.141-.111,1.55l8.79,5.074a2.933,2.933,0,0,0,2.668-.074l9.771-5.709C463.949,184.488,464,183.8,463.292,183.388Z" transform="translate(-371.371 -170.188)" fill="#2f84bd"/><path d="M469.923,187.216l-8.793-5.076a2.935,2.935,0,0,0-2.666.074l-9.771,5.709c-.768.448-.817,1.143-.113,1.55l8.793,5.076a2.94,2.94,0,0,0,2.668-.076l9.771-5.707C470.578,188.318,470.629,187.624,469.923,187.216Z" transform="translate(-364.424 -166.178)" fill="#2f84bd"/><path d="M464.073,192.311l-8.793-5.076a2.935,2.935,0,0,0-2.666.074l-8.2,4.791c-.768.448-.817,1.143-.113,1.55l8.793,5.076a2.94,2.94,0,0,0,2.668-.074l8.2-4.791C464.728,193.413,464.779,192.719,464.073,192.311Z" transform="translate(-368.91 -160.84)" fill="#2f84bd"/><path d="M470.7,196.139l-8.793-5.076a2.94,2.94,0,0,0-2.668.074l-8.2,4.791c-.766.448-.817,1.143-.111,1.55l8.79,5.076a2.94,2.94,0,0,0,2.668-.074l8.2-4.791C471.359,197.241,471.408,196.547,470.7,196.139Z" transform="translate(-361.963 -156.83)" fill="#2f84bd"/><path d="M477.334,199.967l-8.793-5.076a2.935,2.935,0,0,0-2.666.074l-8.2,4.793c-.768.448-.817,1.141-.113,1.548l8.793,5.076a2.94,2.94,0,0,0,2.668-.074l8.2-4.791C477.989,201.069,478.04,200.375,477.334,199.967Z" transform="translate(-355.017 -152.819)" fill="#2f84bd"/><path d="M483.965,203.8l-8.792-5.076a2.94,2.94,0,0,0-2.668.074l-8.2,4.794c-.766.448-.817,1.143-.111,1.55l8.793,5.074a2.929,2.929,0,0,0,2.666-.074l8.2-4.791C484.62,204.9,484.669,204.2,483.965,203.8Z" transform="translate(-348.071 -148.809)" fill="#2f84bd"/><path d="M490.595,207.623l-8.791-5.076a2.94,2.94,0,0,0-2.668.076l-8.2,4.791c-.768.448-.817,1.143-.113,1.55l8.793,5.076a2.94,2.94,0,0,0,2.668-.076l8.2-4.792C491.25,208.724,491.3,208.03,490.595,207.623Z" transform="translate(-341.124 -144.798)" fill="#2f84bd"/><path d="M497.226,211.45l-8.793-5.074a2.933,2.933,0,0,0-2.668.074l-8.2,4.791c-.766.448-.817,1.143-.111,1.55l8.793,5.076a2.936,2.936,0,0,0,2.666-.074l8.2-4.794C497.881,212.552,497.93,211.86,497.226,211.45Z" transform="translate(-334.178 -140.788)" fill="#2f84bd"/><path d="M503.855,215.28l-8.791-5.076a2.94,2.94,0,0,0-2.668.074l-8.2,4.792c-.768.448-.817,1.143-.111,1.55l8.791,5.076a2.94,2.94,0,0,0,2.668-.074l8.2-4.791C504.511,216.38,504.562,215.688,503.855,215.28Z" transform="translate(-327.231 -136.777)" fill="#2f84bd"/><path d="M510.487,219.108l-8.792-5.076a2.94,2.94,0,0,0-2.668.074l-8.2,4.791c-.768.448-.819,1.143-.113,1.55l8.793,5.076a2.935,2.935,0,0,0,2.666-.074l8.2-4.791C511.142,220.21,511.191,219.516,510.487,219.108Z" transform="translate(-320.285 -132.767)" fill="#2f84bd"/><path d="M517.116,222.936l-8.791-5.076a2.94,2.94,0,0,0-2.668.074l-8.2,4.791c-.768.448-.817,1.143-.111,1.55l8.791,5.076a2.94,2.94,0,0,0,2.668-.074l8.2-4.791C517.774,224.038,517.823,223.344,517.116,222.936Z" transform="translate(-313.339 -128.756)" fill="#2f84bd"/><path d="M523.748,226.764l-8.792-5.076a2.94,2.94,0,0,0-2.668.074l-8.2,4.794c-.768.446-.819,1.141-.113,1.548l8.793,5.076a2.94,2.94,0,0,0,2.668-.074l8.2-4.791C524.4,227.866,524.452,227.172,523.748,226.764Z" transform="translate(-306.392 -124.746)" fill="#2f84bd"/><path d="M461.311,197.776l-8.793-5.076a2.94,2.94,0,0,0-2.668.074l-8.2,4.791c-.768.448-.819,1.143-.113,1.55l8.792,5.076a2.94,2.94,0,0,0,2.668-.074l8.2-4.794C461.966,198.876,462.017,198.184,461.311,197.776Z" transform="translate(-371.804 -155.115)" fill="#2f84bd"/><path d="M454.58,193.89l-8.791-5.076a2.94,2.94,0,0,0-2.668.074l-8.2,4.794c-.768.448-.817,1.141-.111,1.55l8.79,5.074a2.933,2.933,0,0,0,2.668-.074l8.2-4.791C455.238,194.992,455.287,194.3,454.58,193.89Z" transform="translate(-378.854 -159.186)" fill="#2f84bd"/><path d="M453.03,193,434.1,182.063a2.939,2.939,0,0,0-2.668.074l-8.2,4.791c-.768.448-.817,1.143-.111,1.55l18.934,10.932a2.94,2.94,0,0,0,2.668-.074l8.2-4.794C453.686,194.1,453.737,193.4,453.03,193Z" transform="translate(-391.105 -166.259)" fill="#2f84bd"/><path d="M443.385,194.485l-15.367-8.872a2.94,2.94,0,0,0-2.668.074l-8.2,4.794c-.768.448-.819,1.141-.113,1.55L432.4,200.9a2.94,2.94,0,0,0,2.668-.074l8.2-4.791C444.04,195.587,444.089,194.893,443.385,194.485Z" transform="translate(-397.472 -162.539)" fill="#2f84bd"/><path d="M467.94,201.6l-8.79-5.076a2.94,2.94,0,0,0-2.668.074l-8.2,4.791c-.768.448-.817,1.143-.111,1.55l8.791,5.076a2.94,2.94,0,0,0,2.668-.074l8.2-4.791C468.6,202.706,468.647,202.012,467.94,201.6Z" transform="translate(-364.857 -151.105)" fill="#2f84bd"/><path d="M474.572,205.432l-8.793-5.076a2.94,2.94,0,0,0-2.668.074l-8.2,4.791c-.768.448-.817,1.143-.113,1.55l8.793,5.076a2.94,2.94,0,0,0,2.668-.074l8.2-4.791C475.227,206.534,475.278,205.84,474.572,205.432Z" transform="translate(-357.911 -147.094)" fill="#2f84bd"/><path d="M481.2,209.26l-8.79-5.076a2.94,2.94,0,0,0-2.668.074l-8.2,4.791c-.768.448-.817,1.143-.111,1.55l8.791,5.076a2.94,2.94,0,0,0,2.668-.074l8.2-4.791C481.859,210.362,481.908,209.668,481.2,209.26Z" transform="translate(-350.965 -143.084)" fill="#2f84bd"/><path d="M487.833,213.088l-8.793-5.076a2.936,2.936,0,0,0-2.666.074l-8.2,4.794c-.768.448-.817,1.141-.113,1.548l8.793,5.076a2.94,2.94,0,0,0,2.668-.074l8.2-4.791C488.488,214.19,488.539,213.5,487.833,213.088Z" transform="translate(-344.018 -139.073)" fill="#2f84bd"/><path d="M494.462,216.916l-8.79-5.076a2.94,2.94,0,0,0-2.668.074l-8.2,4.794c-.768.448-.817,1.141-.111,1.55l8.791,5.074a2.934,2.934,0,0,0,2.668-.074l8.2-4.792C495.12,218.018,495.169,217.324,494.462,216.916Z" transform="translate(-337.072 -135.063)" fill="#2f84bd"/><path d="M501.094,220.744l-8.793-5.076a2.936,2.936,0,0,0-2.666.076l-8.2,4.791c-.768.448-.817,1.143-.113,1.55l8.793,5.076a2.94,2.94,0,0,0,2.668-.076l8.2-4.792C501.749,221.845,501.8,221.151,501.094,220.744Z" transform="translate(-330.125 -131.052)" fill="#2f84bd"/><path d="M507.725,224.571l-8.793-5.074a2.94,2.94,0,0,0-2.668.074l-8.2,4.792c-.766.448-.817,1.143-.111,1.55l8.791,5.076a2.94,2.94,0,0,0,2.668-.074l8.2-4.794C508.38,225.673,508.429,224.981,507.725,224.571Z" transform="translate(-323.179 -127.041)" fill="#2f84bd"/><path d="M514.355,228.4l-8.793-5.076a2.935,2.935,0,0,0-2.666.074l-8.2,4.791c-.768.448-.817,1.143-.113,1.55l8.793,5.076a2.94,2.94,0,0,0,2.668-.074l8.2-4.794C515.01,229.5,515.061,228.809,514.355,228.4Z" transform="translate(-316.232 -123.031)" fill="#2f84bd"/><path d="M520.986,232.229l-8.793-5.076a2.94,2.94,0,0,0-2.668.074l-8.2,4.791c-.766.448-.817,1.143-.111,1.55L510,238.644a2.935,2.935,0,0,0,2.666-.074l8.2-4.791C521.641,233.331,521.69,232.637,520.986,232.229Z" transform="translate(-309.286 -119.021)" fill="#2f84bd"/><path d="M538.089,242.1l-19.182-11.074a2.94,2.94,0,0,0-2.668.074l-8.2,4.791c-.766.448-.817,1.143-.11,1.55l19.182,11.076a2.94,2.94,0,0,0,2.668-.076l8.2-4.791C538.746,243.2,538.8,242.51,538.089,242.1Z" transform="translate(-302.253 -114.96)" fill="#2f84bd"/><path d="M524.4,248.322l-16.191-9.35a2.934,2.934,0,0,0-2.668.076l-8.2,4.791c-.768.448-.819,1.143-.113,1.55l16.191,9.347a2.94,2.94,0,0,0,2.668-.074l8.2-4.794C525.06,249.422,525.109,248.73,524.4,248.322Z" transform="translate(-313.457 -106.637)" fill="#2f84bd"/><path d="M467.021,208.132l-8.792-5.076a2.936,2.936,0,0,0-2.666.074l-8.2,4.791c-.768.448-.817,1.143-.113,1.55l8.793,5.076a2.94,2.94,0,0,0,2.668-.074l8.2-4.793C467.676,209.234,467.727,208.54,467.021,208.132Z" transform="translate(-365.821 -144.266)" fill="#2f84bd"/><path d="M460.224,204.208l-8.79-5.076a2.94,2.94,0,0,0-2.668.076l-8.2,4.791c-.766.448-.817,1.143-.111,1.55l8.79,5.076a2.94,2.94,0,0,0,2.668-.076l8.2-4.791C460.881,205.309,460.93,204.615,460.224,204.208Z" transform="translate(-372.941 -148.376)" fill="#2f84bd"/><path d="M453.43,200.285l-8.793-5.076a2.936,2.936,0,0,0-2.666.074l-8.2,4.791c-.768.448-.817,1.143-.113,1.55l8.793,5.076a2.94,2.94,0,0,0,2.668-.074l8.2-4.791C454.085,201.387,454.136,200.693,453.43,200.285Z" transform="translate(-380.06 -152.486)" fill="#2f84bd"/><path d="M446.635,196.362l-8.793-5.076a2.94,2.94,0,0,0-2.668.074l-8.2,4.791c-.766.448-.817,1.143-.111,1.55l8.791,5.076a2.94,2.94,0,0,0,2.668-.074l8.2-4.794C447.29,197.464,447.339,196.77,446.635,196.362Z" transform="translate(-387.179 -156.596)" fill="#2f84bd"/><path d="M473.65,211.96l-8.791-5.076a2.939,2.939,0,0,0-2.668.074l-8.2,4.791c-.766.448-.817,1.143-.111,1.55l8.79,5.076a2.94,2.94,0,0,0,2.668-.074l8.2-4.791C474.307,213.062,474.356,212.368,473.65,211.96Z" transform="translate(-358.875 -140.255)" fill="#2f84bd"/><path d="M480.282,215.788l-8.793-5.076a2.935,2.935,0,0,0-2.666.074l-8.2,4.793c-.768.446-.817,1.141-.113,1.548L469.3,222.2a2.94,2.94,0,0,0,2.668-.074l8.2-4.791C480.937,216.89,480.988,216.2,480.282,215.788Z" transform="translate(-351.929 -136.245)" fill="#2f84bd"/><path d="M486.913,219.616l-8.793-5.076a2.94,2.94,0,0,0-2.668.074l-8.2,4.794c-.766.448-.817,1.141-.111,1.55l8.79,5.074a2.94,2.94,0,0,0,2.668-.074l8.2-4.791C487.568,220.718,487.617,220.024,486.913,219.616Z" transform="translate(-344.982 -132.235)" fill="#2f84bd"/><path d="M493.543,223.444l-8.79-5.076a2.934,2.934,0,0,0-2.668.076l-8.2,4.791c-.768.448-.817,1.143-.113,1.55l8.793,5.074a2.933,2.933,0,0,0,2.668-.074l8.2-4.792C494.2,224.546,494.249,223.851,493.543,223.444Z" transform="translate(-338.036 -128.224)" fill="#2f84bd"/><path d="M500.174,227.271l-8.793-5.074a2.933,2.933,0,0,0-2.668.074l-8.2,4.791c-.766.448-.817,1.143-.111,1.55l8.793,5.076a2.93,2.93,0,0,0,2.666-.076l8.2-4.792C500.829,228.373,500.878,227.679,500.174,227.271Z" transform="translate(-331.09 -124.213)" fill="#2f84bd"/><path d="M506.8,231.1l-8.79-5.074a2.94,2.94,0,0,0-2.668.074l-8.2,4.792c-.768.448-.817,1.143-.111,1.55l8.791,5.076a2.94,2.94,0,0,0,2.668-.074l8.2-4.794C507.459,232.2,507.51,231.507,506.8,231.1Z" transform="translate(-324.143 -120.202)" fill="#2f84bd"/><path d="M513.435,234.929l-8.792-5.076a2.94,2.94,0,0,0-2.668.074l-8.2,4.791c-.768.448-.819,1.143-.113,1.55l8.793,5.076a2.935,2.935,0,0,0,2.666-.074l8.2-4.791C514.09,236.031,514.139,235.337,513.435,234.929Z" transform="translate(-317.197 -116.192)" fill="#2f84bd"/><path d="M520.064,238.757l-8.791-5.076a2.94,2.94,0,0,0-2.668.074l-8.2,4.791c-.768.448-.817,1.143-.111,1.55l8.79,5.076a2.94,2.94,0,0,0,2.668-.074l8.2-4.791C520.722,239.859,520.771,239.165,520.064,238.757Z" transform="translate(-310.25 -112.182)" fill="#2f84bd"/><path d="M526.7,242.585l-8.792-5.076a2.94,2.94,0,0,0-2.668.074l-8.2,4.791c-.768.448-.819,1.143-.113,1.55L515.715,249a2.94,2.94,0,0,0,2.668-.074l8.2-4.791C527.351,243.687,527.4,242.993,526.7,242.585Z" transform="translate(-303.304 -108.171)" fill="#2f84bd"/><path d="M451,205.94l-8.793-5.076a2.94,2.94,0,0,0-2.668.074l-8.2,4.794c-.768.448-.819,1.141-.113,1.548l8.793,5.076a2.94,2.94,0,0,0,2.668-.074l8.2-4.791C451.653,207.042,451.7,206.348,451,205.94Z" transform="translate(-382.608 -146.562)" fill="#2f84bd"/><path d="M444.4,202.131l-8.791-5.076a2.94,2.94,0,0,0-2.668.074l-8.2,4.791c-.768.45-.817,1.143-.111,1.55l8.79,5.076a2.94,2.94,0,0,0,2.668-.074l8.2-4.791C445.057,203.233,445.106,202.539,444.4,202.131Z" transform="translate(-389.52 -150.552)" fill="#2f84bd"/><path d="M437.8,198.322l-8.793-5.076a2.94,2.94,0,0,0-2.668.074l-8.2,4.791c-.768.448-.819,1.143-.113,1.55l8.793,5.076a2.936,2.936,0,0,0,2.666-.074l8.2-4.791C438.458,199.424,438.507,198.73,437.8,198.322Z" transform="translate(-396.432 -154.543)" fill="#2f84bd"/><path d="M431.2,194.513l-8.791-5.076a2.94,2.94,0,0,0-2.668.074l-8.2,4.791c-.768.448-.817,1.143-.113,1.55l8.793,5.076a2.94,2.94,0,0,0,2.668-.074l8.2-4.791C431.86,195.615,431.911,194.921,431.2,194.513Z" transform="translate(-403.344 -158.533)" fill="#2f84bd"/><path d="M422.007,198.245l-8.791-5.076a2.94,2.94,0,0,0-2.668.074l-2.713,1.585c-.766.448-.817,1.143-.111,1.55l8.793,5.076a2.936,2.936,0,0,0,2.666-.076L421.9,199.8C422.663,199.347,422.714,198.653,422.007,198.245Z" transform="translate(-407.227 -154.624)" fill="#2f84bd"/><path d="M430.618,203.216l-8.793-5.076a2.94,2.94,0,0,0-2.668.074l-2.711,1.585c-.768.448-.817,1.141-.111,1.55l8.791,5.074a2.94,2.94,0,0,0,2.668-.074l2.711-1.583C431.273,204.318,431.324,203.624,430.618,203.216Z" transform="translate(-398.207 -149.416)" fill="#2f84bd"/><path d="M437.188,207.009l-8.793-5.076a2.94,2.94,0,0,0-2.668.074l-2.711,1.585c-.768.448-.817,1.143-.111,1.55l8.79,5.076a2.934,2.934,0,0,0,2.668-.076l2.711-1.583C437.843,208.111,437.894,207.417,437.188,207.009Z" transform="translate(-391.324 -145.442)" fill="#2f84bd"/><path d="M443.757,210.8l-8.793-5.076a2.942,2.942,0,0,0-2.666.074l-2.713,1.585c-.766.448-.817,1.143-.111,1.55l8.79,5.076a2.94,2.94,0,0,0,2.668-.074l2.711-1.585C444.413,211.9,444.464,211.209,443.757,210.8Z" transform="translate(-384.44 -141.468)" fill="#2f84bd"/><path d="M450.327,214.594l-8.793-5.074a2.936,2.936,0,0,0-2.666.074l-2.713,1.583c-.766.448-.817,1.143-.111,1.55l8.791,5.076a2.939,2.939,0,0,0,2.668-.074l2.713-1.585C450.983,215.7,451.034,215,450.327,214.594Z" transform="translate(-377.557 -137.494)" fill="#2f84bd"/><path d="M487.008,235.771l-8.793-5.074a2.933,2.933,0,0,0-2.668.074l-2.711,1.583c-.768.448-.817,1.143-.111,1.55l8.791,5.076a2.94,2.94,0,0,0,2.668-.074l2.711-1.585C487.663,236.873,487.712,236.179,487.008,235.771Z" transform="translate(-339.131 -115.308)" fill="#2f84bd"/><path d="M493.578,239.566l-8.793-5.076a2.94,2.94,0,0,0-2.668.074l-2.711,1.585c-.768.448-.817,1.141-.111,1.548l8.791,5.076a2.94,2.94,0,0,0,2.668-.074l2.711-1.583C494.233,240.666,494.282,239.974,493.578,239.566Z" transform="translate(-332.248 -111.334)" fill="#2f84bd"/><path d="M500.148,243.359l-8.793-5.076a2.94,2.94,0,0,0-2.668.074l-2.711,1.585c-.768.448-.817,1.143-.111,1.55l8.791,5.074a2.933,2.933,0,0,0,2.668-.074l2.711-1.583C500.8,244.461,500.852,243.767,500.148,243.359Z" transform="translate(-325.365 -107.36)" fill="#2f84bd"/><path d="M506.718,247.152l-8.793-5.076a2.94,2.94,0,0,0-2.668.074l-2.711,1.585c-.768.448-.817,1.143-.111,1.55l8.79,5.076a2.94,2.94,0,0,0,2.668-.074l2.711-1.585C507.373,248.254,507.422,247.56,506.718,247.152Z" transform="translate(-318.482 -103.387)" fill="#2f84bd"/><path d="M457.627,209.768l-8.79-5.076a2.946,2.946,0,0,0-2.668.074l-8.2,4.794c-.768.448-.817,1.143-.111,1.55l8.791,5.076a2.946,2.946,0,0,0,2.668-.076l8.2-4.791C458.285,210.869,458.334,210.175,457.627,209.768Z" transform="translate(-375.662 -142.551)" fill="#2f84bd"/><path d="M464.259,213.6l-8.793-5.074a2.94,2.94,0,0,0-2.668.074l-8.2,4.792c-.768.448-.819,1.143-.113,1.55l8.792,5.076a2.934,2.934,0,0,0,2.668-.076l8.2-4.791C464.914,214.7,464.965,214,464.259,213.6Z" transform="translate(-368.715 -138.54)" fill="#2f84bd"/><path d="M470.888,217.423l-8.79-5.074a2.94,2.94,0,0,0-2.668.074l-8.2,4.791c-.768.448-.817,1.143-.111,1.55l8.791,5.076a2.94,2.94,0,0,0,2.668-.074l8.2-4.794C471.546,218.525,471.595,217.833,470.888,217.423Z" transform="translate(-361.769 -134.53)" fill="#2f84bd"/><path d="M477.52,221.253l-8.793-5.076a2.94,2.94,0,0,0-2.668.074l-8.2,4.791c-.768.448-.817,1.143-.113,1.55l8.793,5.076a2.94,2.94,0,0,0,2.668-.074l8.2-4.791C478.175,222.353,478.226,221.661,477.52,221.253Z" transform="translate(-354.822 -130.52)" fill="#2f84bd"/><path d="M484.149,225.081,475.359,220a2.94,2.94,0,0,0-2.668.074l-8.2,4.791c-.768.448-.817,1.143-.111,1.55l8.791,5.076a2.939,2.939,0,0,0,2.668-.074l8.2-4.791C484.807,226.183,484.856,225.489,484.149,225.081Z" transform="translate(-347.876 -126.509)" fill="#2f84bd"/><path d="M490.781,228.909l-8.793-5.076a2.94,2.94,0,0,0-2.668.074l-8.2,4.791c-.768.448-.817,1.143-.113,1.55l8.792,5.076a2.94,2.94,0,0,0,2.668-.074l8.2-4.791C491.436,230.011,491.487,229.317,490.781,228.909Z" transform="translate(-340.929 -122.499)" fill="#2f84bd"/><path d="M497.41,232.737l-8.79-5.076a2.94,2.94,0,0,0-2.668.074l-8.2,4.794c-.768.448-.817,1.141-.111,1.55l8.791,5.074a2.94,2.94,0,0,0,2.668-.074l8.2-4.791C498.068,233.839,498.117,233.145,497.41,232.737Z" transform="translate(-333.983 -118.488)" fill="#2f84bd"/><path d="M504.042,236.565l-8.793-5.076a2.936,2.936,0,0,0-2.666.074l-8.2,4.794c-.768.448-.817,1.143-.113,1.55l8.793,5.076a2.946,2.946,0,0,0,2.668-.076l8.2-4.792C504.7,237.667,504.748,236.973,504.042,236.565Z" transform="translate(-327.037 -114.478)" fill="#2f84bd"/><path d="M510.671,240.393l-8.79-5.076a2.94,2.94,0,0,0-2.668.076l-8.2,4.792c-.766.448-.817,1.143-.111,1.55l8.791,5.076a2.946,2.946,0,0,0,2.668-.074l8.2-4.794C511.328,241.494,511.377,240.8,510.671,240.393Z" transform="translate(-320.09 -110.467)" fill="#2f84bd"/><path d="M466.065,193.462l-25.892-14.95a2.94,2.94,0,0,0-2.668.074l-8.2,4.792c-.766.448-.817,1.143-.111,1.55l25.892,14.95a2.94,2.94,0,0,0,2.668-.074l8.2-4.794C466.72,194.563,466.771,193.869,466.065,193.462Z" transform="translate(-384.738 -169.979)" fill="#2f84bd"/><path d="M547.523,240.49l-25.892-14.948a2.94,2.94,0,0,0-2.668.074l-8.2,4.791c-.768.448-.817,1.143-.11,1.55l25.892,14.95a2.936,2.936,0,0,0,2.666-.076l8.2-4.791C548.179,241.591,548.228,240.9,547.523,240.49Z" transform="translate(-299.4 -120.708)" fill="#2f84bd"/><path d="M527.279,220.33l-8.793-5.076a2.94,2.94,0,0,0-2.668.074l-9.771,5.709c-.766.448-.817,1.141-.11,1.548l8.79,5.076a2.94,2.94,0,0,0,2.668-.074l9.771-5.709C527.934,221.43,527.983,220.736,527.279,220.33Z" transform="translate(-304.337 -131.486)" fill="#2f84bd"/><path d="M481.824,194.085l-14.061-8.117a2.94,2.94,0,0,0-2.668.074l-9.771,5.709c-.768.448-.817,1.143-.111,1.55l14.059,8.117a2.94,2.94,0,0,0,2.668-.074l9.771-5.709C482.479,195.186,482.528,194.492,481.824,194.085Z" transform="translate(-357.478 -162.168)" fill="#2f84bd"/><path d="M523.585,218.2l-14.061-8.117a2.929,2.929,0,0,0-2.666.074l-9.771,5.709c-.768.446-.817,1.141-.113,1.548l14.061,8.119a2.939,2.939,0,0,0,2.668-.074l9.771-5.709C524.24,219.3,524.291,218.6,523.585,218.2Z" transform="translate(-313.726 -136.907)" fill="#2f84bd"/><path d="M491.389,199.61l-14.061-8.119a2.936,2.936,0,0,0-2.666.074l-9.771,5.709c-.768.448-.819,1.143-.113,1.55l14.061,8.119a2.94,2.94,0,0,0,2.668-.076l9.771-5.709C492.044,200.712,492.1,200.017,491.389,199.61Z" transform="translate(-347.456 -156.381)" fill="#2f84bd"/><path d="M464.57,198.7,525.7,234a2.931,2.931,0,0,0,2.666.037l9.964-5.821c.715-.416.678-1.11-.08-1.548l-61.13-35.293Z" transform="translate(-347.151 -156.207)" fill="#2f84bd"/><path d="M528.525,230.193l9.792,5.654a2.407,2.407,0,0,0,2.187-.061l4-2.334c.629-.369.67-.936.092-1.27l-9.794-5.656a2.414,2.414,0,0,0-2.187.061l-4,2.334C527.987,229.29,527.946,229.859,528.525,230.193Z" transform="translate(-280.578 -119.623)" fill="#2f84bd"/><path d="M521.839,226.333l9.794,5.654a2.413,2.413,0,0,0,2.187-.059l4-2.336c.629-.367.67-.936.09-1.27l-9.792-5.656a2.414,2.414,0,0,0-2.187.061l-4,2.336C521.3,225.43,521.261,226,521.839,226.333Z" transform="translate(-287.582 -123.667)" fill="#2f84bd"/><path d="M515.209,222.5,525,228.158a2.407,2.407,0,0,0,2.187-.061l4-2.334c.629-.367.67-.936.092-1.27l-9.794-5.656a2.414,2.414,0,0,0-2.187.061l-4,2.334C514.671,221.6,514.63,222.171,515.209,222.5Z" transform="translate(-294.528 -127.678)" fill="#2f84bd"/><path d="M518.39,228.346,528.184,234a2.407,2.407,0,0,0,2.187-.059l4-2.336c.629-.367.67-.936.092-1.27l-9.794-5.654a2.413,2.413,0,0,0-2.187.059l-4,2.336C517.854,227.443,517.813,228.012,518.39,228.346Z" transform="translate(-291.194 -121.557)" fill="#2f84bd"/></g></g></g></g><g transform="translate(119.467 254.992)" opacity="0.8"><path d="M356.739,236.766l-8.707-5.027c-.7-.4-.612-1.11.2-1.575l10.277-5.934a3.029,3.029,0,0,1,2.727-.113l8.707,5.027c.7.4.61,1.108-.2,1.575l-10.277,5.934A3.036,3.036,0,0,1,356.739,236.766Z" transform="translate(-347.561 -189.498)" fill="#2f84bd"/><path d="M363.306,240.556,354.6,235.53c-.7-.4-.612-1.108.195-1.575l10.277-5.934a3.036,3.036,0,0,1,2.727-.113l8.707,5.027c.7.4.612,1.11-.195,1.575l-10.277,5.934A3.036,3.036,0,0,1,363.306,240.556Z" transform="translate(-340.681 -185.526)" fill="#2f84bd"/><path d="M369.872,244.347l-8.706-5.027c-.7-.4-.61-1.108.2-1.575l10.277-5.932a3.03,3.03,0,0,1,2.727-.115l8.707,5.027c.7.4.612,1.11-.2,1.575L372.6,244.235A3.029,3.029,0,0,1,369.872,244.347Z" transform="translate(-333.802 -181.555)" fill="#2f84bd"/><path d="M378.954,240.729l-8.707-5.027c-.7-.4-.61-1.108.2-1.575l8.627-4.98a3.023,3.023,0,0,1,2.727-.113l8.706,5.027c.7.4.612,1.108-.2,1.575l-8.627,4.98A3.029,3.029,0,0,1,378.954,240.729Z" transform="translate(-324.287 -184.348)" fill="#2f84bd"/><path d="M385.522,244.521l-8.707-5.027c-.7-.4-.612-1.11.195-1.575l8.629-4.982a3.036,3.036,0,0,1,2.727-.113l8.707,5.027c.7.4.61,1.108-.2,1.575l-8.627,4.98A3.03,3.03,0,0,1,385.522,244.521Z" transform="translate(-317.408 -180.375)" fill="#2f84bd"/><path d="M392.089,248.312l-8.709-5.027c-.7-.4-.61-1.11.2-1.575l8.627-4.982a3.036,3.036,0,0,1,2.727-.113l8.707,5.027c.7.4.612,1.11-.195,1.575l-8.629,4.982A3.032,3.032,0,0,1,392.089,248.312Z" transform="translate(-310.528 -176.404)" fill="#2f84bd"/><path d="M398.654,252.1l-8.707-5.027c-.7-.4-.612-1.108.2-1.575l8.627-4.98a3.03,3.03,0,0,1,2.727-.115l8.707,5.027c.7.4.612,1.11-.2,1.575l-8.627,4.982A3.036,3.036,0,0,1,398.654,252.1Z" transform="translate(-303.649 -172.432)" fill="#2f84bd"/><path d="M405.221,255.894l-8.706-5.027c-.7-.4-.612-1.108.195-1.575l8.627-4.98a3.03,3.03,0,0,1,2.727-.113l8.709,5.027c.7.4.61,1.108-.2,1.575l-8.627,4.98A3.03,3.03,0,0,1,405.221,255.894Z" transform="translate(-296.77 -168.46)" fill="#2f84bd"/><path d="M411.787,259.687l-8.707-5.029c-.7-.4-.61-1.108.2-1.573L411.9,248.1a3.029,3.029,0,0,1,2.727-.113l8.707,5.027c.7.4.612,1.108-.195,1.575l-8.629,4.98A3.03,3.03,0,0,1,411.787,259.687Z" transform="translate(-289.89 -164.488)" fill="#2f84bd"/><path d="M418.354,263.477l-8.707-5.027c-.7-.4-.612-1.11.195-1.575l8.629-4.982a3.036,3.036,0,0,1,2.727-.113l8.707,5.027c.7.4.61,1.11-.2,1.575l-8.627,4.982A3.036,3.036,0,0,1,418.354,263.477Z" transform="translate(-283.011 -160.516)" fill="#2f84bd"/><path d="M424.922,267.268l-8.709-5.027c-.7-.4-.61-1.108.2-1.575l8.627-4.98a3.03,3.03,0,0,1,2.727-.115l8.707,5.027c.7.4.612,1.11-.195,1.575l-8.627,4.982A3.036,3.036,0,0,1,424.922,267.268Z" transform="translate(-276.131 -156.545)" fill="#2f84bd"/><path d="M431.487,271.059l-8.707-5.027c-.7-.4-.612-1.108.2-1.575l8.627-4.98a3.023,3.023,0,0,1,2.727-.113l8.707,5.025c.7.406.612,1.11-.2,1.575l-8.627,4.982A3.029,3.029,0,0,1,431.487,271.059Z" transform="translate(-269.252 -152.573)" fill="#2f84bd"/><path d="M438.054,274.85l-8.707-5.025c-.7-.405-.612-1.11.195-1.577l8.627-4.98a3.03,3.03,0,0,1,2.727-.113l8.709,5.027c.7.4.61,1.108-.2,1.575l-8.627,4.98A3.023,3.023,0,0,1,438.054,274.85Z" transform="translate(-262.372 -148.601)" fill="#2f84bd"/><path d="M388.63,238.934l-8.706-5.027c-.7-.4-.612-1.108.195-1.575l8.627-4.98a3.03,3.03,0,0,1,2.727-.113l8.709,5.027c.7.4.61,1.108-.2,1.575l-8.627,4.98A3.023,3.023,0,0,1,388.63,238.934Z" transform="translate(-314.151 -186.228)" fill="#2f84bd"/><path d="M381.965,235.087l-8.707-5.027c-.7-.4-.612-1.11.2-1.575l8.627-4.982a3.036,3.036,0,0,1,2.727-.113l8.707,5.027c.7.4.612,1.108-.2,1.575l-8.627,4.98A3.03,3.03,0,0,1,381.965,235.087Z" transform="translate(-321.133 -190.259)" fill="#2f84bd"/><path d="M380.43,234.2l-18.752-10.826c-.7-.4-.612-1.108.195-1.575l8.627-4.98a3.03,3.03,0,0,1,2.727-.115l18.752,10.828c.7.4.612,1.108-.195,1.575l-8.627,4.98A3.023,3.023,0,0,1,380.43,234.2Z" transform="translate(-333.266 -197.264)" fill="#2f84bd"/><path d="M383.288,228.468l-15.218-8.784c-.7-.405-.612-1.11.195-1.575l8.629-4.982a3.03,3.03,0,0,1,2.727-.113l15.218,8.786c.7.4.61,1.108-.2,1.575l-8.627,4.98A3.03,3.03,0,0,1,383.288,228.468Z" transform="translate(-326.57 -201.13)" fill="#2f84bd"/><path d="M395.2,242.726l-8.707-5.027c-.7-.4-.61-1.11.2-1.575l8.627-4.982a3.036,3.036,0,0,1,2.727-.113l8.707,5.027c.7.4.612,1.108-.195,1.575l-8.629,4.98A3.03,3.03,0,0,1,395.2,242.726Z" transform="translate(-307.271 -182.256)" fill="#2f84bd"/><path d="M401.763,246.517l-8.707-5.027c-.7-.4-.612-1.108.195-1.575l8.629-4.982a3.036,3.036,0,0,1,2.727-.113l8.707,5.027c.7.4.61,1.11-.2,1.575l-8.627,4.982A3.036,3.036,0,0,1,401.763,246.517Z" transform="translate(-300.392 -178.284)" fill="#2f84bd"/><path d="M408.331,250.308l-8.709-5.027c-.7-.4-.61-1.108.2-1.575l8.627-4.98a3.03,3.03,0,0,1,2.727-.115l8.707,5.027c.7.4.612,1.11-.195,1.575l-8.627,4.982A3.036,3.036,0,0,1,408.331,250.308Z" transform="translate(-293.513 -174.312)" fill="#2f84bd"/><path d="M414.9,254.1l-8.707-5.027c-.7-.4-.612-1.108.2-1.575l8.627-4.98a3.029,3.029,0,0,1,2.727-.113l8.707,5.027c.7.4.612,1.108-.2,1.575l-8.627,4.98A3.029,3.029,0,0,1,414.9,254.1Z" transform="translate(-286.633 -170.34)" fill="#2f84bd"/><path d="M421.463,257.891l-8.706-5.027c-.7-.4-.612-1.11.194-1.575l8.629-4.982a3.032,3.032,0,0,1,2.725-.113l8.709,5.027c.7.4.61,1.108-.2,1.575l-8.627,4.98A3.03,3.03,0,0,1,421.463,257.891Z" transform="translate(-279.754 -166.368)" fill="#2f84bd"/><path d="M428.029,261.682l-8.707-5.027c-.7-.4-.61-1.11.2-1.575l8.627-4.982a3.036,3.036,0,0,1,2.727-.113l8.707,5.027c.7.4.612,1.108-.195,1.575l-8.629,4.982A3.036,3.036,0,0,1,428.029,261.682Z" transform="translate(-272.874 -162.397)" fill="#2f84bd"/><path d="M434.6,265.473l-8.706-5.027c-.7-.4-.612-1.108.2-1.575l8.627-4.98a3.03,3.03,0,0,1,2.727-.115l8.707,5.027c.7.405.61,1.11-.2,1.575l-8.627,4.982A3.03,3.03,0,0,1,434.6,265.473Z" transform="translate(-265.995 -158.425)" fill="#2f84bd"/><path d="M441.164,269.264l-8.707-5.027c-.7-.4-.612-1.108.195-1.575l8.627-4.98a3.024,3.024,0,0,1,2.727-.113l8.707,5.027c.7.4.612,1.108-.195,1.575l-8.627,4.98A3.03,3.03,0,0,1,441.164,269.264Z" transform="translate(-259.115 -154.453)" fill="#2f84bd"/><path d="M447.729,273.057l-8.706-5.027c-.7-.405-.61-1.11.2-1.575l8.627-4.982a3.029,3.029,0,0,1,2.727-.113l8.707,5.027c.7.4.612,1.108-.2,1.575l-8.627,4.98A3.03,3.03,0,0,1,447.729,273.057Z" transform="translate(-252.236 -150.481)" fill="#2f84bd"/><path d="M464.668,282.837l-19-10.969c-.7-.4-.61-1.108.2-1.575l8.627-4.98a3.03,3.03,0,0,1,2.727-.115l19,10.969c.7.4.612,1.108-.2,1.575l-8.627,4.98A3.03,3.03,0,0,1,464.668,282.837Z" transform="translate(-245.271 -146.46)" fill="#2f84bd"/><path d="M475.938,274.581,459.9,265.321c-.7-.4-.612-1.108.195-1.575l8.629-4.98a3.023,3.023,0,0,1,2.727-.113l16.033,9.257c.7.4.612,1.108-.195,1.575l-8.627,4.98A3.03,3.03,0,0,1,475.938,274.581Z" transform="translate(-230.362 -153.318)" fill="#2f84bd"/><path d="M406.7,241.984l-8.707-5.027c-.7-.4-.612-1.108.195-1.575l8.629-4.982a3.036,3.036,0,0,1,2.727-.113l8.706,5.027c.7.4.61,1.11-.2,1.575l-8.627,4.982A3.036,3.036,0,0,1,406.7,241.984Z" transform="translate(-295.224 -183.033)" fill="#2f84bd"/><path d="M399.966,238.1l-8.707-5.027c-.7-.4-.612-1.108.195-1.575l8.629-4.98a3.023,3.023,0,0,1,2.727-.113l8.707,5.027c.7.4.61,1.108-.2,1.575l-8.627,4.98A3.03,3.03,0,0,1,399.966,238.1Z" transform="translate(-302.275 -187.104)" fill="#2f84bd"/><path d="M393.236,234.213l-8.707-5.027c-.7-.4-.612-1.11.195-1.575l8.629-4.982a3.036,3.036,0,0,1,2.727-.113l8.707,5.027c.7.4.61,1.11-.2,1.575l-8.627,4.982A3.036,3.036,0,0,1,393.236,234.213Z" transform="translate(-309.325 -191.174)" fill="#2f84bd"/><path d="M386.506,230.327,377.8,225.3c-.7-.4-.612-1.108.2-1.575l8.627-4.98a3.023,3.023,0,0,1,2.727-.113l8.706,5.025c.7.405.61,1.11-.2,1.575l-8.627,4.982A3.03,3.03,0,0,1,386.506,230.327Z" transform="translate(-316.376 -195.245)" fill="#2f84bd"/><path d="M413.264,245.775l-8.709-5.027c-.7-.4-.61-1.108.2-1.575l8.627-4.98a3.03,3.03,0,0,1,2.727-.115l8.707,5.027c.7.4.612,1.11-.195,1.575l-8.627,4.982A3.036,3.036,0,0,1,413.264,245.775Z" transform="translate(-288.345 -179.061)" fill="#2f84bd"/><path d="M419.829,249.566l-8.707-5.027c-.7-.4-.612-1.108.2-1.575l8.627-4.98a3.03,3.03,0,0,1,2.727-.113l8.707,5.027c.7.4.612,1.108-.2,1.575l-8.627,4.98A3.023,3.023,0,0,1,419.829,249.566Z" transform="translate(-281.465 -175.089)" fill="#2f84bd"/><path d="M426.4,253.359l-8.707-5.027c-.7-.405-.612-1.11.195-1.575l8.627-4.982a3.03,3.03,0,0,1,2.727-.113l8.709,5.027c.7.4.61,1.108-.2,1.575l-8.627,4.98A3.03,3.03,0,0,1,426.4,253.359Z" transform="translate(-274.586 -171.118)" fill="#2f84bd"/><path d="M432.962,257.149l-8.707-5.027c-.7-.4-.61-1.11.2-1.575l8.627-4.982a3.036,3.036,0,0,1,2.727-.113l8.707,5.027c.7.4.612,1.11-.195,1.575l-8.629,4.982A3.036,3.036,0,0,1,432.962,257.149Z" transform="translate(-267.706 -167.146)" fill="#2f84bd"/><path d="M439.529,260.94l-8.707-5.027c-.7-.4-.612-1.108.195-1.575l8.629-4.98a3.03,3.03,0,0,1,2.727-.115l8.707,5.027c.7.405.61,1.11-.2,1.575l-8.627,4.982A3.03,3.03,0,0,1,439.529,260.94Z" transform="translate(-260.827 -163.174)" fill="#2f84bd"/><path d="M446.1,264.731l-8.709-5.027c-.7-.4-.61-1.108.2-1.575l8.627-4.98a3.023,3.023,0,0,1,2.727-.113l8.707,5.027c.7.4.612,1.108-.195,1.575l-8.627,4.98A3.03,3.03,0,0,1,446.1,264.731Z" transform="translate(-253.948 -159.202)" fill="#2f84bd"/><path d="M452.662,268.524l-8.707-5.027c-.7-.405-.612-1.11.2-1.575l8.627-4.982a3.03,3.03,0,0,1,2.727-.113l8.706,5.027c.7.4.612,1.108-.2,1.575l-8.627,4.98A3.03,3.03,0,0,1,452.662,268.524Z" transform="translate(-247.068 -155.23)" fill="#2f84bd"/><path d="M459.229,272.314l-8.707-5.027c-.7-.4-.612-1.11.195-1.575l8.629-4.982a3.036,3.036,0,0,1,2.727-.113l8.707,5.027c.7.4.61,1.11-.2,1.575l-8.627,4.982A3.036,3.036,0,0,1,459.229,272.314Z" transform="translate(-240.189 -151.258)" fill="#2f84bd"/><path d="M465.795,276.105l-8.707-5.027c-.7-.4-.61-1.108.2-1.575l8.627-4.982a3.036,3.036,0,0,1,2.727-.113l8.706,5.027c.7.4.612,1.11-.195,1.575l-8.629,4.982A3.036,3.036,0,0,1,465.795,276.105Z" transform="translate(-233.309 -147.287)" fill="#2f84bd"/><path d="M403.238,232.606l-8.707-5.025c-.7-.405-.612-1.11.2-1.575l8.627-4.982a3.03,3.03,0,0,1,2.727-.113l8.707,5.027c.7.4.612,1.108-.2,1.575l-8.627,4.98A3.023,3.023,0,0,1,403.238,232.606Z" transform="translate(-298.847 -192.857)" fill="#2f84bd"/><path d="M396.7,228.834,388,223.807c-.7-.4-.61-1.108.2-1.575l8.627-4.98a3.03,3.03,0,0,1,2.727-.115l8.707,5.027c.7.405.612,1.11-.2,1.575l-8.627,4.982A3.03,3.03,0,0,1,396.7,228.834Z" transform="translate(-305.691 -196.809)" fill="#2f84bd"/><path d="M390.17,225.062l-8.707-5.027c-.7-.4-.61-1.11.2-1.575l8.627-4.982a3.036,3.036,0,0,1,2.727-.113l8.706,5.027c.7.4.612,1.108-.2,1.575L392.9,224.95A3.036,3.036,0,0,1,390.17,225.062Z" transform="translate(-312.537 -200.761)" fill="#2f84bd"/><path d="M383.636,221.289l-8.707-5.027c-.7-.4-.61-1.108.2-1.575l8.627-4.98a3.03,3.03,0,0,1,2.727-.113l8.706,5.027c.7.4.612,1.108-.195,1.575l-8.629,4.98A3.023,3.023,0,0,1,383.636,221.289Z" transform="translate(-319.382 -204.713)" fill="#2f84bd"/><path d="M390.355,215.7l-8.707-5.027c-.7-.4-.612-1.108.2-1.575l2.852-1.646a3.032,3.032,0,0,1,2.725-.113l8.709,5.027c.7.4.61,1.108-.2,1.575l-2.852,1.646A3.029,3.029,0,0,1,390.355,215.7Z" transform="translate(-312.343 -207.071)" fill="#2f84bd"/><path d="M398.882,220.627l-8.707-5.027c-.7-.4-.612-1.108.2-1.575l2.85-1.646a3.03,3.03,0,0,1,2.727-.113l8.707,5.027c.7.4.612,1.108-.195,1.575l-2.852,1.646A3.03,3.03,0,0,1,398.882,220.627Z" transform="translate(-303.41 -201.914)" fill="#2f84bd"/><path d="M405.389,224.385l-8.707-5.027c-.7-.4-.612-1.11.195-1.575l2.852-1.646a3.023,3.023,0,0,1,2.727-.113l8.707,5.027c.7.4.612,1.108-.195,1.573l-2.852,1.648A3.036,3.036,0,0,1,405.389,224.385Z" transform="translate(-296.594 -197.978)" fill="#2f84bd"/><path d="M411.895,228.142l-8.707-5.029c-.7-.4-.61-1.108.2-1.573l2.852-1.648a3.036,3.036,0,0,1,2.727-.113l8.706,5.027c.7.4.61,1.108-.2,1.575l-2.852,1.646A3.03,3.03,0,0,1,411.895,228.142Z" transform="translate(-289.777 -194.043)" fill="#2f84bd"/><path d="M418.4,231.9,409.7,226.87c-.7-.4-.612-1.108.2-1.575l2.85-1.646a3.03,3.03,0,0,1,2.727-.113l8.709,5.027c.7.4.61,1.108-.2,1.575l-2.852,1.646A3.029,3.029,0,0,1,418.4,231.9Z" transform="translate(-282.96 -190.107)" fill="#2f84bd"/><path d="M454.728,252.871l-8.707-5.027c-.7-.4-.612-1.108.2-1.575l2.85-1.646a3.023,3.023,0,0,1,2.727-.113l8.709,5.027c.7.4.61,1.108-.2,1.575l-2.852,1.646A3.036,3.036,0,0,1,454.728,252.871Z" transform="translate(-244.904 -168.135)" fill="#2f84bd"/><path d="M461.235,256.628l-8.707-5.027c-.7-.405-.612-1.11.195-1.575l2.852-1.648a3.036,3.036,0,0,1,2.727-.113l8.707,5.027c.7.4.612,1.11-.195,1.575l-2.852,1.646A3.03,3.03,0,0,1,461.235,256.628Z" transform="translate(-238.087 -164.2)" fill="#2f84bd"/><path d="M467.742,260.383l-8.706-5.027c-.7-.4-.612-1.108.195-1.575l2.852-1.646a3.036,3.036,0,0,1,2.727-.113l8.706,5.027c.7.4.612,1.108-.2,1.575l-2.85,1.646A3.03,3.03,0,0,1,467.742,260.383Z" transform="translate(-231.27 -160.264)" fill="#2f84bd"/><path d="M474.248,264.14l-8.707-5.027c-.7-.4-.61-1.11.2-1.575l2.852-1.646a3.029,3.029,0,0,1,2.727-.113l8.707,5.027c.7.4.61,1.108-.2,1.575l-2.852,1.646A3.036,3.036,0,0,1,474.248,264.14Z" transform="translate(-224.453 -156.328)" fill="#2f84bd"/><path d="M409.805,236.4l-8.707-5.027c-.7-.4-.612-1.11.195-1.575l8.627-4.982a3.036,3.036,0,0,1,2.727-.113l8.709,5.027c.7.4.61,1.108-.2,1.575l-8.627,4.982A3.036,3.036,0,0,1,409.805,236.4Z" transform="translate(-291.967 -188.885)" fill="#2f84bd"/><path d="M416.371,240.189l-8.707-5.027c-.7-.4-.61-1.108.2-1.575l8.627-4.98a3.03,3.03,0,0,1,2.727-.115l8.707,5.027c.7.4.612,1.11-.195,1.575l-8.629,4.982A3.036,3.036,0,0,1,416.371,240.189Z" transform="translate(-285.088 -184.913)" fill="#2f84bd"/><path d="M422.938,243.98l-8.707-5.027c-.7-.4-.612-1.108.2-1.575l8.627-4.98a3.03,3.03,0,0,1,2.727-.115l8.707,5.027c.7.405.61,1.11-.2,1.575l-8.627,4.982A3.03,3.03,0,0,1,422.938,243.98Z" transform="translate(-278.208 -180.942)" fill="#2f84bd"/><path d="M429.505,247.771l-8.707-5.025c-.7-.405-.612-1.11.195-1.577l8.627-4.98a3.03,3.03,0,0,1,2.727-.113l8.707,5.027c.7.4.612,1.108-.195,1.575l-8.627,4.98A3.023,3.023,0,0,1,429.505,247.771Z" transform="translate(-271.329 -176.97)" fill="#2f84bd"/><path d="M436.071,251.563l-8.707-5.027c-.7-.4-.61-1.11.2-1.575l8.627-4.982a3.036,3.036,0,0,1,2.727-.113l8.706,5.027c.7.4.612,1.108-.2,1.575l-8.627,4.982A3.036,3.036,0,0,1,436.071,251.563Z" transform="translate(-264.449 -172.998)" fill="#2f84bd"/><path d="M442.638,255.354l-8.707-5.027c-.7-.4-.612-1.11.195-1.575l8.629-4.982a3.036,3.036,0,0,1,2.727-.113l8.707,5.027c.7.4.61,1.11-.2,1.575l-8.627,4.982A3.036,3.036,0,0,1,442.638,255.354Z" transform="translate(-257.57 -169.026)" fill="#2f84bd"/><path d="M449.206,259.145l-8.709-5.027c-.7-.4-.61-1.108.2-1.575l8.627-4.98a3.03,3.03,0,0,1,2.727-.115l8.706,5.027c.7.405.612,1.11-.195,1.575l-8.629,4.982A3.025,3.025,0,0,1,449.206,259.145Z" transform="translate(-250.69 -165.054)" fill="#2f84bd"/><path d="M455.771,262.936l-8.707-5.027c-.7-.4-.612-1.108.2-1.575l8.627-4.98a3.029,3.029,0,0,1,2.727-.113l8.707,5.027c.7.4.612,1.108-.2,1.575l-8.627,4.98A3.023,3.023,0,0,1,455.771,262.936Z" transform="translate(-243.811 -161.082)" fill="#2f84bd"/><path d="M462.338,266.728l-8.706-5.027c-.7-.4-.612-1.11.194-1.575l8.627-4.982a3.036,3.036,0,0,1,2.727-.113l8.709,5.027c.7.4.61,1.108-.2,1.575l-8.627,4.98A3.03,3.03,0,0,1,462.338,266.728Z" transform="translate(-236.932 -157.11)" fill="#2f84bd"/><path d="M380.927,241.869l-25.643-14.8c-.7-.405-.61-1.11.2-1.575l8.627-4.982a3.029,3.029,0,0,1,2.727-.113l25.643,14.8c.7.4.612,1.11-.195,1.575l-8.629,4.982A3.036,3.036,0,0,1,380.927,241.869Z" transform="translate(-339.963 -193.398)" fill="#2f84bd"/><path d="M461.6,288.445l-25.643-14.8c-.7-.4-.612-1.108.195-1.575l8.629-4.982a3.036,3.036,0,0,1,2.727-.113l25.643,14.8c.7.405.61,1.11-.2,1.575l-8.627,4.982A3.03,3.03,0,0,1,461.6,288.445Z" transform="translate(-255.448 -144.603)" fill="#2f84bd"/><path d="M426.674,277.143l-8.706-5.027c-.7-.4-.612-1.11.2-1.575l10.277-5.934a3.029,3.029,0,0,1,2.727-.113l8.707,5.027c.7.4.61,1.108-.2,1.575L429.4,277.03A3.036,3.036,0,0,1,426.674,277.143Z" transform="translate(-274.294 -147.198)" fill="#2f84bd"/><path d="M381.657,251.152l-13.924-8.041c-.7-.4-.612-1.108.195-1.575L378.2,235.6a3.023,3.023,0,0,1,2.727-.113l13.926,8.039c.7.4.61,1.108-.2,1.575l-10.277,5.934A3.036,3.036,0,0,1,381.657,251.152Z" transform="translate(-326.923 -177.583)" fill="#2f84bd"/><path d="M423.017,275.031l-13.924-8.039c-.7-.4-.612-1.11.195-1.575l10.277-5.934a3.03,3.03,0,0,1,2.727-.113l13.926,8.039c.7.4.61,1.108-.2,1.575l-10.277,5.934A3.036,3.036,0,0,1,423.017,275.031Z" transform="translate(-283.592 -152.566)" fill="#2f84bd"/><path d="M391.13,256.623l-13.924-8.039c-.7-.405-.612-1.11.2-1.575l10.277-5.934a3.03,3.03,0,0,1,2.727-.115L404.331,249c.7.4.612,1.108-.2,1.575l-10.277,5.932A3.03,3.03,0,0,1,391.13,256.623Z" transform="translate(-316.997 -171.853)" fill="#2f84bd"/><path d="M390.212,240.848l60.54,34.953a.829.829,0,0,1,0,1.571l-10.48,6.051a3.007,3.007,0,0,1-2.721,0l-60.54-34.953Z" transform="translate(-316.707 -171.685)" fill="#2f84bd"/><path d="M443.906,277.521l9.7,5.6c.573.332.5.909-.16,1.292l-4.2,2.426a2.48,2.48,0,0,1-2.236.092l-9.7-5.6c-.571-.332-.5-.909.162-1.292l4.2-2.426A2.48,2.48,0,0,1,443.906,277.521Z" transform="translate(-253.946 -133.5)" fill="#2f84bd"/><path d="M437.285,273.7l9.7,5.6c.573.33.5.907-.16,1.29l-4.2,2.426a2.487,2.487,0,0,1-2.236.094l-9.7-5.6c-.573-.33-.5-.909.162-1.29l4.2-2.429A2.493,2.493,0,0,1,437.285,273.7Z" transform="translate(-260.882 -137.505)" fill="#2f84bd"/><path d="M430.718,269.906l9.7,5.6c.573.332.5.909-.16,1.292l-4.2,2.426a2.48,2.48,0,0,1-2.236.092l-9.7-5.6c-.573-.332-.5-.909.16-1.29l4.2-2.428A2.486,2.486,0,0,1,430.718,269.906Z" transform="translate(-267.762 -141.477)" fill="#2f84bd"/><path d="M440.911,271.6l9.7,5.6c.573.332.5.909-.16,1.29l-4.2,2.429a2.486,2.486,0,0,1-2.236.092l-9.7-5.6c-.573-.33-.5-.907.16-1.29l4.2-2.426A2.487,2.487,0,0,1,440.911,271.6Z" transform="translate(-257.083 -139.698)" fill="#2f84bd"/></g><g transform="translate(435.493 168.703)"><path d="M506.874,173.919a4.079,4.079,0,0,1-2.029-.582,5.938,5.938,0,0,1-2.842-6,3.01,3.01,0,0,1,1.7-2.166,3.592,3.592,0,0,1,3.227.34,5.948,5.948,0,0,1,2.842,6,2.909,2.909,0,0,1-2.9,2.4Zm-1.966-8.055a2.034,2.034,0,0,0-.829.166,2.1,2.1,0,0,0-1.167,1.521,4.949,4.949,0,0,0,2.4,4.98,2.681,2.681,0,0,0,2.388.293,2.085,2.085,0,0,0,1.169-1.521,4.959,4.959,0,0,0-2.4-4.982A3.175,3.175,0,0,0,504.908,165.863Z" transform="translate(-501.898 -164.93)" fill="#349cc8"/><path d="M512.288,177.045a4.08,4.08,0,0,1-2.029-.582,5.938,5.938,0,0,1-2.842-6,3,3,0,0,1,1.7-2.166,3.6,3.6,0,0,1,3.229.34,5.949,5.949,0,0,1,2.84,6,2.908,2.908,0,0,1-2.9,2.406Zm-1.966-8.055a2.034,2.034,0,0,0-.829.166,2.1,2.1,0,0,0-1.167,1.521,4.949,4.949,0,0,0,2.4,4.98,2.68,2.68,0,0,0,2.387.293,2.087,2.087,0,0,0,1.167-1.521,4.957,4.957,0,0,0-2.4-4.982A3.175,3.175,0,0,0,510.322,168.989Z" transform="translate(-496.226 -161.655)" fill="#349cc8"/><path d="M519.912,177.422c-.446,1.937-2.347,2.619-4.243,1.526a5.438,5.438,0,0,1-2.621-5.49c.446-1.937,2.347-2.621,4.243-1.528A5.439,5.439,0,0,1,519.912,177.422Z" transform="translate(-490.316 -158.143)" fill="#349cc8"/></g><path d="M415.571,117.756l-5.93-3.423.46-2.741,5.93,3.424Z" transform="translate(-163.056 -52.107)" fill="#2f84bd"/><path d="M419.78,120.187l-5.93-3.424.459-2.741,5.93,3.423Z" transform="translate(-158.646 -49.561)" fill="#2f84bd"/><path d="M415.024,117.441l-13-7.508.459-2.741,13,7.508Z" transform="translate(-171.04 -56.717)" fill="#2f84bd"/></g><g transform="translate(222.907 104.433)"><path d="M414.248,141.566l-9.924-5.73.385-2.294,9.924,5.73Z" transform="translate(-389.675 -133.543)" fill="#214760"/><path d="M415.845,142.489l-4.962-2.865.385-2.294,4.962,2.865Z" transform="translate(-382.803 -129.575)" fill="#214760"/><path d="M412.323,143.337,408.1,140.9l.384-2.294,4.228,2.441Z" transform="translate(-385.724 -128.243)" fill="#214760"/><path d="M416.158,145.55l-4.962-2.865.385-2.294,4.962,2.865Z" transform="translate(-382.476 -126.368)" fill="#214760"/><path d="M427.155,154.781l-19.5-11.258.385-2.294,19.5,11.259Z" transform="translate(-386.185 -125.491)" fill="#214760"/><path d="M418.9,176.771l-19.5-11.259.385-2.294,19.5,11.258Z" transform="translate(-394.834 -102.453)" fill="#214760"/><path d="M415.124,174.591l-4.962-2.865.385-2.294,4.962,2.865Z" transform="translate(-383.559 -95.944)" fill="#214760"/><path d="M411.443,148.59l-4.228-2.441.385-2.294,4.228,2.441Z" transform="translate(-386.647 -122.739)" fill="#214760"/><path d="M415.277,150.8l-4.962-2.865.385-2.294,4.962,2.865Z" transform="translate(-383.398 -120.864)" fill="#214760"/><path d="M417.494,154.965l-10.72-6.189.385-2.294,10.72,6.189Z" transform="translate(-387.108 -119.987)" fill="#214760"/><path d="M418.052,155.288l-4.962-2.865.385-2.294,4.962,2.865Z" transform="translate(-380.491 -116.167)" fill="#214760"/><path d="M421.575,157.321l-4.962-2.865.385-2.294,4.962,2.865Z" transform="translate(-376.8 -114.036)" fill="#214760"/><path d="M429.525,161.911l-9.389-5.421.385-2.294,9.389,5.421Z" transform="translate(-373.11 -111.905)" fill="#214760"/><path d="M423.631,164.27l-4.962-2.865.385-2.294,4.962,2.865Z" transform="translate(-374.647 -106.756)" fill="#214760"/><path d="M431.581,168.86l-9.389-5.421.385-2.294,9.389,5.421Z" transform="translate(-370.956 -104.625)" fill="#214760"/><path d="M410.855,156.894l-4.962-2.865.385-2.294,4.962,2.865Z" transform="translate(-388.031 -114.483)" fill="#214760"/><path d="M414.378,158.928l-4.962-2.865.385-2.294,4.962,2.865Z" transform="translate(-384.341 -112.353)" fill="#214760"/><path d="M422.328,163.518l-9.389-5.421.385-2.294,9.389,5.421Z" transform="translate(-380.65 -110.222)" fill="#214760"/><path d="M427.512,163.63l-4.962-2.865.385-2.294,4.962,2.865Z" transform="translate(-370.581 -107.427)" fill="#214760"/><path d="M431.034,165.664l-4.962-2.865.385-2.294,4.962,2.865Z" transform="translate(-366.89 -105.296)" fill="#214760"/><path d="M438.984,170.254l-9.389-5.421.385-2.294,9.389,5.421Z" transform="translate(-363.2 -103.165)" fill="#214760"/><path d="M418.915,176.78l-4.962-2.865.385-2.294,4.962,2.865Z" transform="translate(-379.587 -93.65)" fill="#214760"/><path d="M426.865,181.37l-9.389-5.421.385-2.294,9.389,5.421Z" transform="translate(-375.897 -91.52)" fill="#214760"/><path d="M409.974,162.148l-4.962-2.865.385-2.294,4.962,2.865Z" transform="translate(-388.954 -108.979)" fill="#214760"/><path d="M417.924,166.738l-9.389-5.421.385-2.294,9.389,5.421Z" transform="translate(-385.263 -106.848)" fill="#214760"/><path d="M421.555,181.185l-4.962-2.865.385-2.294,4.962,2.865Z" transform="translate(-376.822 -89.035)" fill="#214760"/><path d="M429.5,185.775l-9.389-5.421.385-2.294,9.389,5.421Z" transform="translate(-373.131 -86.905)" fill="#214760"/><path d="M426.961,154.669,422,151.8l.385-2.294,4.962,2.865Z" transform="translate(-371.158 -116.815)" fill="#214760"/><path d="M423.3,152.553l-4.962-2.865.385-2.294,4.962,2.865Z" transform="translate(-374.996 -119.031)" fill="#214760"/><path d="M434.911,159.259l-9.389-5.421.385-2.294,9.389,5.421Z" transform="translate(-367.467 -114.684)" fill="#214760"/><path d="M410.81,153.988l-4.477-2.585.385-2.294,4.477,2.585Z" transform="translate(-387.57 -117.235)" fill="#214760"/><path d="M420.571,159.623l-10.882-6.283.385-2.294,10.882,6.283Z" transform="translate(-384.054 -115.206)" fill="#214760"/><path d="M427.054,163.366l-10.882-6.283.385-2.294,10.882,6.283Z" transform="translate(-377.262 -111.284)" fill="#214760"/><path d="M435.765,159.752l-4.477-2.585.385-2.294,4.477,2.585Z" transform="translate(-361.426 -111.196)" fill="#214760"/><path d="M445.526,165.387,434.644,159.1l.385-2.294,10.882,6.283Z" transform="translate(-357.91 -109.167)" fill="#214760"/><path d="M452.009,169.13l-10.882-6.283.385-2.294,10.882,6.283Z" transform="translate(-351.118 -105.245)" fill="#214760"/><path d="M416.381,162.966,405.5,156.684l.385-2.294,10.882,6.283Z" transform="translate(-388.443 -111.703)" fill="#214760"/><path d="M415.325,162.357l-3.342-1.93.385-2.294,3.342,1.93Z" transform="translate(-381.651 -107.781)" fill="#214760"/><path d="M418.133,163.978l-3.342-1.93.385-2.294,3.342,1.93Z" transform="translate(-378.71 -106.083)" fill="#214760"/><path d="M425.82,168.416l-8.222-4.747.385-2.294,8.222,4.747Z" transform="translate(-375.768 -104.385)" fill="#214760"/><path d="M429.141,161.69l-3.342-1.93.385-2.294,3.342,1.93Z" transform="translate(-367.177 -108.48)" fill="#214760"/><path d="M436.828,166.128l-8.222-4.747.385-2.294,8.222,4.747Z" transform="translate(-364.235 -106.782)" fill="#214760"/><path d="M437.919,166.758l-8.222-4.747.385-2.294,8.222,4.747Z" transform="translate(-363.092 -106.122)" fill="#214760"/><path d="M417.82,181.91l-10.72-6.189.385-2.294,10.72,6.189Z" transform="translate(-386.766 -91.758)" fill="#214760"/><path d="M418.379,182.233l-4.962-2.865.385-2.294,4.962,2.865Z" transform="translate(-380.149 -87.938)" fill="#214760"/><path d="M421.9,184.267,416.94,181.4l.385-2.294,4.962,2.865Z" transform="translate(-376.458 -85.807)" fill="#214760"/><path d="M429.852,188.857l-9.389-5.421.385-2.294,9.389,5.421Z" transform="translate(-372.768 -83.676)" fill="#214760"/><path d="M431.223,189.648l-4.962-2.865.385-2.294,4.962,2.865Z" transform="translate(-366.693 -80.169)" fill="#214760"/><path d="M439.173,194.238l-9.389-5.421.385-2.294,9.389,5.421Z" transform="translate(-363.002 -78.038)" fill="#214760"/><path d="M419.469,188.624l-4.962-2.865.385-2.294,4.962,2.865Z" transform="translate(-379.007 -81.242)" fill="#214760"/><path d="M427.419,193.214l-9.389-5.421.385-2.294,9.389,5.421Z" transform="translate(-375.316 -79.111)" fill="#214760"/><path d="M406.812,181.317l-4.962-2.865.385-2.294,4.962,2.865Z" transform="translate(-392.267 -88.898)" fill="#214760"/><path d="M410.334,183.351l-4.962-2.865.385-2.294,4.962,2.865Z" transform="translate(-388.577 -86.767)" fill="#214760"/><path d="M418.284,187.94l-9.389-5.421.385-2.294,9.389,5.421Z" transform="translate(-384.886 -84.636)" fill="#214760"/><path d="M411.137,180.933l-4.477-2.585.385-2.294,4.477,2.585Z" transform="translate(-387.227 -89.006)" fill="#214760"/><path d="M420.9,186.568l-10.882-6.283.385-2.294,10.882,6.283Z" transform="translate(-383.712 -86.977)" fill="#214760"/><path d="M427.381,190.311,416.5,184.029l.385-2.294,10.882,6.283Z" transform="translate(-376.919 -83.055)" fill="#214760"/><path d="M408.051,184.914l-10.882-6.283.385-2.294,10.882,6.283Z" transform="translate(-397.17 -88.71)" fill="#214760"/><path d="M407,184.3l-3.342-1.93.385-2.294,3.342,1.93Z" transform="translate(-390.377 -84.788)" fill="#214760"/><path d="M409.8,185.925,406.461,184l.385-2.294,3.342,1.93Z" transform="translate(-387.436 -83.09)" fill="#214760"/><path d="M417.49,190.363l-8.222-4.747.385-2.294,8.222,4.747Z" transform="translate(-384.495 -81.392)" fill="#214760"/><path d="M418.581,190.993l-8.222-4.747.385-2.294,8.222,4.747Z" transform="translate(-383.352 -80.732)" fill="#214760"/><path d="M406.587,172.544l-3.342-1.93.385-2.294,3.342,1.929Z" transform="translate(-390.805 -97.108)" fill="#214760"/><path d="M414.275,176.982l-8.222-4.747.385-2.294,8.222,4.747Z" transform="translate(-387.864 -95.41)" fill="#214760"/><path d="M419.578,180.044l-8.222-4.747L411.74,173l8.222,4.747Z" transform="translate(-382.308 -92.203)" fill="#214760"/><path d="M438.345,196.642l-4.962-2.865.385-2.294,4.962,2.865Z" transform="translate(-359.231 -72.843)" fill="#214760"/><path d="M446.3,201.232l-9.389-5.421.385-2.294,9.389,5.421Z" transform="translate(-355.541 -70.712)" fill="#214760"/><path d="M431.065,192.438l-8.222-4.747.385-2.294,8.222,4.747Z" transform="translate(-370.273 -79.218)" fill="#214760"/><path d="M436.368,195.5l-8.222-4.747.385-2.294,8.222,4.747Z" transform="translate(-364.718 -76.01)" fill="#214760"/><path d="M403.749,161.435l-3.342-1.93.385-2.294,3.342,1.93Z" transform="translate(-393.779 -108.746)" fill="#214760"/><path d="M411.436,165.874l-8.222-4.747.385-2.294,8.222,4.747Z" transform="translate(-390.837 -107.048)" fill="#214760"/><path d="M416.739,168.935l-8.222-4.747.385-2.294,8.222,4.747Z" transform="translate(-385.282 -103.841)" fill="#214760"/><path d="M529.879,245.672a4.615,4.615,0,0,1-2.3-.665L461.123,206.64a9.126,9.126,0,0,1-3.911-8.836l4.251-25.356A4.725,4.725,0,0,1,463.9,168.8a4.084,4.084,0,0,1,3.843.321L534.2,207.5a9.116,9.116,0,0,1,3.909,8.831l-4.251,25.356a4.714,4.714,0,0,1-2.439,3.645A3.587,3.587,0,0,1,529.879,245.672ZM465.444,169.4a2.663,2.663,0,0,0-1.145.252,3.816,3.816,0,0,0-1.914,2.957l-4.253,25.356a8.117,8.117,0,0,0,3.461,7.871L528.048,244.2a3.166,3.166,0,0,0,2.977.289,3.819,3.819,0,0,0,1.917-2.959l4.251-25.356a8.114,8.114,0,0,0-3.458-7.869l-66.458-38.369A3.671,3.671,0,0,0,465.444,169.4Z" transform="translate(-334.374 -96.96)" fill="#349cc8"/><path d="M526.311,266.951a4.606,4.606,0,0,1-2.3-.663l-66.456-38.369a9.123,9.123,0,0,1-3.911-8.833L457.9,193.73a4.72,4.72,0,0,1,2.433-3.645,4.084,4.084,0,0,1,3.847.319l66.456,38.371a9.118,9.118,0,0,1,3.911,8.831l-4.253,25.356a4.715,4.715,0,0,1-2.437,3.645A3.564,3.564,0,0,1,526.311,266.951Zm-1.83-1.47a3.169,3.169,0,0,0,2.977.285,3.813,3.813,0,0,0,1.915-2.959l4.251-25.356a8.111,8.111,0,0,0-3.456-7.869L463.71,191.213a3.185,3.185,0,0,0-2.981-.287,3.809,3.809,0,0,0-1.912,2.957l-4.253,25.358a8.119,8.119,0,0,0,3.461,7.869Z" transform="translate(-338.112 -74.667)" fill="#349cc8"/><path d="M461.986,197.455c1.177.68,2.226.426,2.615-.635l7.748-21.175c.885-2.418,4.5-.231,5.266,3.184l4.771,21.31a6.2,6.2,0,0,0,2.654,3.819l1.138.657c1.108.641,2.109.455,2.545-.469L490.3,200.8c.979-2.074,4.239-.119,5.129,3.076h0a6.168,6.168,0,0,0,2.584,3.544l1,.575c1.208.7,2.275.41,2.639-.708l1.437-4.421c.813-2.5,4.439-.418,5.273,3.018l4.775,19.729a6.166,6.166,0,0,0,2.674,3.751Z" transform="translate(-329.266 -90.508)" opacity="0.5" fill="url(#i)" style="mix-blend-mode:lighten;isolation:isolate"/><path d="M511.7,251.011a6.633,6.633,0,0,1-2.9-4.05l-4.775-19.729c-.506-2.1-2.211-3.714-3.4-3.759a.945.945,0,0,0-.979.776l-1.437,4.421a1.949,1.949,0,0,1-1.145,1.282,2.534,2.534,0,0,1-2.173-.315l-.993-.573a6.6,6.6,0,0,1-2.8-3.825c-.565-2.023-2.152-3.487-3.28-3.583a.9.9,0,0,0-.979.584l-1.577,3.344a1.856,1.856,0,0,1-1.136,1.026,2.58,2.58,0,0,1-2.066-.352l-1.138-.657a6.649,6.649,0,0,1-2.873-4.12l-4.775-21.31c-.469-2.1-2.168-3.764-3.377-3.843a.95.95,0,0,0-.993.715l-7.75,21.177a1.919,1.919,0,0,1-1.145,1.2,2.554,2.554,0,0,1-2.14-.326l.469-.809a1.639,1.639,0,0,0,1.353.256.993.993,0,0,0,.586-.645l7.75-21.177a1.841,1.841,0,0,1,1.929-1.325c1.573.1,3.647,1.964,4.23,4.568l4.773,21.31a5.73,5.73,0,0,0,2.429,3.516l1.141.657a1.735,1.735,0,0,0,1.319.27.945.945,0,0,0,.571-.532L486,221.84a1.832,1.832,0,0,1,1.9-1.116c1.673.141,3.473,2.015,4.1,4.263a5.717,5.717,0,0,0,2.367,3.268l1,.573a1.674,1.674,0,0,0,1.37.252,1.038,1.038,0,0,0,.592-.7l1.437-4.421a1.861,1.861,0,0,1,1.814-1.419h.086c1.552.059,3.639,1.872,4.267,4.472l4.775,19.729a5.72,5.72,0,0,0,2.451,3.452Z" transform="translate(-333.572 -68.753)" fill="#214760"/></g><path d="M501.4,181.38a5.835,5.835,0,0,1-2.91-.827l-51.959-30a9.245,9.245,0,0,1-3.995-9.958,5.541,5.541,0,0,1,3.155-3.819,5.327,5.327,0,0,1,4.757.465l51.959,30A9.248,9.248,0,0,1,506.4,177.2a5.532,5.532,0,0,1-3.155,3.819A4.867,4.867,0,0,1,501.4,181.38Zm-53.863-44.03a3.894,3.894,0,0,0-1.493.293,4.617,4.617,0,0,0-2.609,3.2,8.269,8.269,0,0,0,3.563,8.9l51.959,30a4.4,4.4,0,0,0,3.936.41,4.616,4.616,0,0,0,2.611-3.2,8.261,8.261,0,0,0-3.565-8.9l-51.959-30A4.877,4.877,0,0,0,447.538,137.349Z" transform="translate(-127.026 -26.102)" fill="#349cc8"/></g></g></g></svg>